<?xml version="1.0" encoding="UTF-8"?>
<!DOCTYPE svg PUBLIC "-//W3C//DTD SVG 1.1//EN" "http://www.w3.org/Graphics/SVG/1.1/DTD/svg11.dtd">
<svg xmlns="http://www.w3.org/2000/svg" version="1.1" width="500px" height="500px" style="shape-rendering:geometricPrecision; text-rendering:geometricPrecision; image-rendering:optimizeQuality; fill-rule:evenodd; clip-rule:evenodd" xmlns:xlink="http://www.w3.org/1999/xlink">
<g><path style="opacity:0.569" fill="#fcfcfc" d="M 313.5,14.5 C 325.838,14.3335 338.171,14.5001 350.5,15C 352.286,15.7845 353.786,16.9512 355,18.5C 363.233,31.2991 365.066,44.9658 360.5,59.5C 361.192,61.3351 360.858,63.1684 359.5,65C 359.833,65.3333 360.167,65.6667 360.5,66C 355.689,83.5906 349.689,101.091 342.5,118.5C 344.333,121.5 346.167,124.5 348,127.5C 369.022,110.072 391.189,94.2382 414.5,80C 431.556,69.7804 449.556,67.1138 468.5,72C 479.353,75.5306 487.853,82.0306 494,91.5C 494.667,106.833 494.667,122.167 494,137.5C 490.582,143.337 486.916,149.004 483,154.5C 460.812,177.819 435.978,197.652 408.5,214C 415.986,216.009 422.82,219.842 429,225.5C 439.588,243.199 435.755,257.699 417.5,269C 411.164,270.843 405.164,272.676 399.5,274.5C 434.657,298.108 458.324,329.941 470.5,370C 470.167,370.333 469.833,370.667 469.5,371C 475.645,394.603 471.145,417.103 456,438.5C 433.287,463.391 406.787,469.557 376.5,457C 351.475,446.405 328.975,431.905 309,413.5C 308.157,427.297 304.157,440.297 297,452.5C 282.728,469.404 266.228,472.237 247.5,461C 242.585,456.756 238.419,451.923 235,446.5C 228.447,431.769 224.614,416.769 223.5,401.5C 223.048,395.558 222.048,389.892 220.5,384.5C 214.928,396.564 207.594,407.397 198.5,417C 188.44,425.753 177.106,429.086 164.5,427C 146.174,447.343 125.507,464.677 102.5,479C 86.5,479.667 70.5,479.667 54.5,479C 38.0022,466.852 30.3356,450.518 31.5,430C 33.622,419.08 37.122,408.58 42,398.5C 50.6732,384.159 60.5065,370.659 71.5,358C 53.6602,358.811 36.9936,355.811 21.5,349C 14.3333,344.5 8.5,338.667 4,331.5C 3.33333,315.833 3.33333,300.167 4,284.5C 11.8689,272.807 22.3689,264.307 35.5,259C 51.0458,252.488 67.2124,247.988 84,245.5C 102.537,241.653 120.703,239.653 138.5,239.5C 139.737,239.444 140.737,238.944 141.5,238C 109.155,214.991 80.655,187.825 56,156.5C 35.0682,128.506 26.5682,98.006 30.5,65C 37.5635,41.6064 53.0635,26.4397 77,19.5C 94.4403,18.4427 110.774,22.4427 126,31.5C 141.426,22.2007 157.926,19.7007 175.5,24C 197.028,29.5317 214.195,41.365 227,59.5C 242.544,82.9174 254.544,107.917 263,134.5C 265.571,123.706 269.071,112.206 273.5,100C 273.167,99.6667 272.833,99.3333 272.5,99C 278.403,83.2892 283.903,67.4559 289,51.5C 292.569,42.8107 296.902,34.4774 302,26.5C 305.364,21.9715 309.197,17.9715 313.5,14.5 Z M 116.5,157.5 C 113.944,156.457 111.777,154.79 110,152.5C 100.235,141.404 91.2346,129.737 83,117.5C 75.9772,104.543 72.4772,91.3762 72.5,78C 74.6549,71.1741 78.9882,66.1741 85.5,63C 90.5471,62.6858 94.8804,64.3524 98.5,68C 97.1667,72 95.8333,76 94.5,80C 94.5785,87.7055 94.5785,95.3722 94.5,103C 99.3183,121.097 106.652,139.264 116.5,157.5 Z M 137.5,94.5 C 157.309,110.809 175.309,128.976 191.5,149C 183.84,156.791 180.006,165.958 180,176.5C 161.874,151.25 147.708,123.917 137.5,94.5 Z M 335.5,203.5 C 355.76,181.404 377.426,160.904 400.5,142C 413.294,132.546 426.627,123.879 440.5,116C 444.782,114.217 448.948,113.05 453,112.5C 453.833,113.333 454.667,114.167 455.5,115C 450.087,125.428 442.754,134.428 433.5,142C 403.304,166.274 370.637,186.774 335.5,203.5 Z M 62.5,294.5 C 63.6946,294.866 64.3613,295.699 64.5,297C 64.1072,301.489 64.1072,305.822 64.5,310C 65.1667,311.333 65.8333,312.667 66.5,314C 60.7753,314.717 55.1087,314.384 49.5,313C 46.2426,312.251 43.5759,310.584 41.5,308C 47.5984,302.063 54.5984,297.563 62.5,294.5 Z M 150.5,344.5 C 151.497,344.47 152.164,344.97 152.5,346C 148.546,355.586 144.879,364.919 141.5,374C 141.833,374.333 142.167,374.667 142.5,375C 141.626,378.366 140.626,381.7 139.5,385C 139.833,385.333 140.167,385.667 140.5,386C 125.421,405.747 107.754,422.747 87.5,437C 84.6469,438.534 81.8135,440.034 79,441.5C 76.4008,440.137 75.2341,437.97 75.5,435C 77.0123,428.142 79.5123,421.642 83,415.5C 95.663,397.495 109.83,380.662 125.5,365C 132.636,358.865 139.469,352.365 146,345.5C 146.333,345.833 146.667,346.167 147,346.5C 148.302,345.915 149.469,345.249 150.5,344.5 Z M 357.5,350.5 C 365.026,351.954 372.192,354.287 379,357.5C 379.333,357.167 379.667,356.833 380,356.5C 388.074,358.967 396.241,359.134 404.5,357C 408.128,355.343 411.795,354.01 415.5,353C 420.795,362.756 425.128,372.923 428.5,383.5C 430.065,396.241 425.732,407.075 415.5,416C 410.94,419.174 405.94,420.174 400.5,419C 384.015,412.758 368.681,404.424 354.5,394C 353.426,393.261 352.759,392.261 352.5,391C 361.81,378.309 363.477,364.809 357.5,350.5 Z M 263.5,365.5 C 264.494,366.999 264.494,368.666 263.5,370.5C 262.28,368.95 262.28,367.284 263.5,365.5 Z"/></g>
<g><path style="opacity:1" fill="#364b62" d="M 327.5,120.5 C 321.616,119.094 315.616,118.094 309.5,117.5C 310.246,116.264 310.579,114.93 310.5,113.5C 316.285,98.3161 321.785,82.9827 327,67.5C 335.279,35.9008 332.613,34.2342 319,62.5C 312.02,81.4619 305.52,100.462 299.5,119.5C 298.698,120.952 298.198,122.618 298,124.5C 293.932,127.066 290.765,130.399 288.5,134.5C 283.958,137.923 280.625,142.257 278.5,147.5C 277.017,149.094 275.517,150.76 274,152.5C 273.506,150.866 273.34,149.199 273.5,147.5C 279.842,116.804 288.675,86.8042 300,57.5C 303.553,48.7262 307.886,40.3929 313,32.5C 317.712,25.9751 324.045,21.9751 332,20.5C 344.97,22.814 351.47,30.6473 351.5,44C 346.984,70.708 338.984,96.208 327.5,120.5 Z"/></g>
<g><path style="opacity:1" fill="#435160" d="M 125.5,45.5 C 125.062,45.4346 124.728,45.6012 124.5,46C 125.527,46.5133 126.527,47.0133 127.5,47.5C 130.861,49.5113 134.194,51.5113 137.5,53.5C 139.687,54.758 142.02,55.758 144.5,56.5C 173.066,81.2348 199.566,108.235 224,137.5C 227.51,142.529 231.01,147.529 234.5,152.5C 235.189,153.774 236.023,153.774 237,152.5C 238.213,156.85 240.046,160.85 242.5,164.5C 244.707,170.35 247.707,175.684 251.5,180.5C 251.924,183.354 252.924,186.021 254.5,188.5C 253.754,189.736 253.421,191.07 253.5,192.5C 252.108,194.273 250.941,196.273 250,198.5C 249.303,196.416 248.136,194.749 246.5,193.5C 243.441,189.096 240.775,184.429 238.5,179.5C 236.992,173.805 233.992,169.138 229.5,165.5C 228.094,165.027 227.427,164.027 227.5,162.5C 223.722,156.1 218.055,152.433 210.5,151.5C 193.804,131.629 176.137,112.462 157.5,94C 149.722,86.2865 141.389,79.2865 132.5,73C 131.423,72.5304 130.423,72.6971 129.5,73.5C 129.267,71.9382 128.6,70.6049 127.5,69.5C 123.999,65.3375 119.665,62.3375 114.5,60.5C 108.188,57.6786 101.855,54.8453 95.5,52C 86.4934,48.9574 78.4934,50.6241 71.5,57C 67.532,61.1197 64.1987,65.6197 61.5,70.5C 59.4503,76.0896 59.117,81.7563 60.5,87.5C 63.6586,106.129 70.8253,123.129 82,138.5C 105.244,167.253 131.744,192.253 161.5,213.5C 159.865,219.678 160.365,225.678 163,231.5C 163.708,232.381 164.542,233.047 165.5,233.5C 166.543,236.056 168.21,238.223 170.5,240C 169.944,240.383 169.611,240.883 169.5,241.5C 129.611,217.124 95.1112,186.457 66,149.5C 50.6197,129.533 42.4531,106.866 41.5,81.5C 42.1277,56.3583 54.461,39.8583 78.5,32C 87.7559,30.8071 96.7559,31.8071 105.5,35C 112.442,38.2377 119.108,41.7377 125.5,45.5 Z M 116.5,157.5 C 106.652,139.264 99.3183,121.097 94.5,103C 94.5785,95.3722 94.5785,87.7055 94.5,80C 95.8333,76 97.1667,72 98.5,68C 94.8804,64.3524 90.5471,62.6858 85.5,63C 78.9882,66.1741 74.6549,71.1741 72.5,78C 72.4772,91.3762 75.9772,104.543 83,117.5C 91.2346,129.737 100.235,141.404 110,152.5C 111.777,154.79 113.944,156.457 116.5,157.5 Z M 137.5,94.5 C 147.708,123.917 161.874,151.25 180,176.5C 180.006,165.958 183.84,156.791 191.5,149C 175.309,128.976 157.309,110.809 137.5,94.5 Z"/></g>
<g><path style="opacity:1" fill="#5f5249" d="M 259.5,166.5 C 261.738,173.997 260.238,180.664 255,186.5C 254.059,184.273 252.892,182.273 251.5,180.5C 249.293,174.65 246.293,169.316 242.5,164.5C 240.046,160.85 238.213,156.85 237,152.5C 236.023,153.774 235.189,153.774 234.5,152.5C 226.913,121.656 213.079,93.6564 193,68.5C 181.517,57.0113 167.683,52.178 151.5,54C 149.35,55.4114 147.016,56.2447 144.5,56.5C 142.02,55.758 139.687,54.758 137.5,53.5C 135.112,50.462 132.112,48.1287 128.5,46.5C 127.893,46.6236 127.56,46.9569 127.5,47.5C 126.527,47.0133 125.527,46.5133 124.5,46C 124.728,45.6012 125.062,45.4346 125.5,45.5C 130.647,42.5681 135.981,39.7348 141.5,37C 169.677,30.3922 193.177,38.2256 212,60.5C 234.618,92.7409 250.452,128.074 259.5,166.5 Z"/></g>
<g><path style="opacity:1" fill="#f6f6f6" d="M 310.5,113.5 C 308.935,115.509 307.935,117.843 307.5,120.5C 304.735,120.798 302.235,121.798 300,123.5C 299.51,122.207 299.343,120.873 299.5,119.5C 305.52,100.462 312.02,81.4619 319,62.5C 332.613,34.2342 335.279,35.9008 327,67.5C 321.785,82.9827 316.285,98.3161 310.5,113.5 Z"/></g>
<g><path style="opacity:1" fill="#111112" d="M 127.5,47.5 C 127.56,46.9569 127.893,46.6236 128.5,46.5C 132.112,48.1287 135.112,50.462 137.5,53.5C 134.194,51.5113 130.861,49.5113 127.5,47.5 Z"/></g>
<g><path style="opacity:0.615" fill="#fcfcfc" d="M 114.5,60.5 C 113.833,62.5 113.167,64.5 112.5,66.5C 108.17,74.1557 106.17,82.4891 106.5,91.5C 106.561,100.081 108.061,108.414 111,116.5C 123.35,144.875 138.017,171.875 155,197.5C 158.032,201.359 161.198,205.026 164.5,208.5C 164.167,209.833 163.833,211.167 163.5,212.5C 162.833,212.833 162.167,213.167 161.5,213.5C 131.744,192.253 105.244,167.253 82,138.5C 70.8253,123.129 63.6586,106.129 60.5,87.5C 60.5324,81.8114 60.8658,76.1448 61.5,70.5C 64.1987,65.6197 67.532,61.1197 71.5,57C 78.4934,50.6241 86.4934,48.9574 95.5,52C 101.855,54.8453 108.188,57.6786 114.5,60.5 Z M 116.5,157.5 C 106.652,139.264 99.3183,121.097 94.5,103C 94.5785,95.3722 94.5785,87.7055 94.5,80C 95.8333,76 97.1667,72 98.5,68C 94.8804,64.3524 90.5471,62.6858 85.5,63C 78.9882,66.1741 74.6549,71.1741 72.5,78C 72.4772,91.3762 75.9772,104.543 83,117.5C 91.2346,129.737 100.235,141.404 110,152.5C 111.777,154.79 113.944,156.457 116.5,157.5 Z"/></g>
<g><path style="opacity:0.748" fill="#fbfbfb" d="M 234.5,152.5 C 231.01,147.529 227.51,142.529 224,137.5C 199.566,108.235 173.066,81.2348 144.5,56.5C 147.016,56.2447 149.35,55.4114 151.5,54C 167.683,52.178 181.517,57.0113 193,68.5C 213.079,93.6564 226.913,121.656 234.5,152.5 Z"/></g>
<g><path style="opacity:1" fill="#191818" d="M 114.5,60.5 C 119.665,62.3375 123.999,65.3375 127.5,69.5C 123.721,67.4378 120.054,65.1045 116.5,62.5C 115.16,63.8665 113.827,65.1999 112.5,66.5C 113.167,64.5 113.833,62.5 114.5,60.5 Z"/></g>
<g><path style="opacity:1" fill="#5f5249" d="M 127.5,69.5 C 128.6,70.6049 129.267,71.9382 129.5,73.5C 128.736,76.0177 127.736,78.351 126.5,80.5C 125.046,83.7178 124.379,87.2178 124.5,91C 124.504,93.3608 124.837,95.5274 125.5,97.5C 129.889,111.964 135.722,125.964 143,139.5C 154.503,160.802 167.336,181.136 181.5,200.5C 181.414,201.496 181.748,202.329 182.5,203C 178.471,203.416 174.804,204.583 171.5,206.5C 169.167,207.167 166.833,207.833 164.5,208.5C 161.198,205.026 158.032,201.359 155,197.5C 138.017,171.875 123.35,144.875 111,116.5C 108.061,108.414 106.561,100.081 106.5,91.5C 106.17,82.4891 108.17,74.1557 112.5,66.5C 113.827,65.1999 115.16,63.8665 116.5,62.5C 120.054,65.1045 123.721,67.4378 127.5,69.5 Z"/></g>
<g><path style="opacity:0.611" fill="#fbfbfb" d="M 210.5,151.5 C 208.28,152.979 205.946,154.312 203.5,155.5C 201.284,156.203 199.451,157.536 198,159.5C 195.676,162.48 194.176,165.813 193.5,169.5C 192.353,173.646 192.186,177.98 193,182.5C 193.278,183.416 193.778,184.082 194.5,184.5C 198.32,194.819 203.653,204.152 210.5,212.5C 210.631,213.376 210.298,214.043 209.5,214.5C 205.524,211.678 201.191,209.678 196.5,208.5C 193.362,206.505 189.862,205.172 186,204.5C 184.649,202.982 183.149,201.649 181.5,200.5C 167.336,181.136 154.503,160.802 143,139.5C 135.722,125.964 129.889,111.964 125.5,97.5C 125.447,91.8044 125.78,86.1377 126.5,80.5C 127.736,78.351 128.736,76.0177 129.5,73.5C 130.423,72.6971 131.423,72.5304 132.5,73C 141.389,79.2865 149.722,86.2865 157.5,94C 176.137,112.462 193.804,131.629 210.5,151.5 Z M 137.5,94.5 C 147.708,123.917 161.874,151.25 180,176.5C 180.006,165.958 183.84,156.791 191.5,149C 175.309,128.976 157.309,110.809 137.5,94.5 Z"/></g>
<g><path style="opacity:1" fill="#161a1f" d="M 61.5,70.5 C 60.8658,76.1448 60.5324,81.8114 60.5,87.5C 59.117,81.7563 59.4503,76.0896 61.5,70.5 Z"/></g>
<g><path style="opacity:1" fill="#362d25" d="M 459.5,82.5 C 453.833,82.5 448.167,82.5 442.5,82.5C 445.171,81.7021 448.004,81.0354 451,80.5C 453.996,81.0354 456.829,81.7021 459.5,82.5 Z"/></g>
<g><path style="opacity:1" fill="#88674b" d="M 442.5,82.5 C 448.167,82.5 453.833,82.5 459.5,82.5C 468.176,83.6686 475.176,87.6686 480.5,94.5C 482.772,98.0461 484.772,101.713 486.5,105.5C 488.603,117.093 486.27,127.76 479.5,137.5C 479.19,136.262 478.69,136.262 478,137.5C 476.144,140.556 474.311,143.556 472.5,146.5C 472.5,146.833 472.5,147.167 472.5,147.5C 465.5,152.5 459.5,158.5 454.5,165.5C 427.526,187.997 398.193,206.997 366.5,222.5C 356.515,223.499 346.515,224.499 336.5,225.5C 335.209,225.263 334.209,225.596 333.5,226.5C 329.486,226.666 325.486,226.499 321.5,226C 324.391,224.726 327.058,223.226 329.5,221.5C 360.257,205.288 390.257,187.788 419.5,169C 436.337,156.828 451.17,142.661 464,126.5C 465.62,123.107 467.12,119.774 468.5,116.5C 470.809,109.745 468.476,105.078 461.5,102.5C 456.296,100.746 450.963,100.246 445.5,101C 408.407,118.623 376.074,142.457 348.5,172.5C 343.364,176.098 338.364,180.598 333.5,186C 333.728,186.399 334.062,186.565 334.5,186.5C 328.12,193.213 321.12,199.213 313.5,204.5C 303.692,202.224 294.692,203.891 286.5,209.5C 283.052,210.39 280.052,212.057 277.5,214.5C 276.662,214.158 276.328,213.492 276.5,212.5C 287.135,203.537 297.802,194.537 308.5,185.5C 312.167,182.5 315.5,179.167 318.5,175.5C 319.167,175.167 319.833,174.833 320.5,174.5C 325.776,168.962 331.276,163.629 337,158.5C 337.464,157.906 337.631,157.239 337.5,156.5C 365.018,127.148 396.685,103.314 432.5,85C 435.72,83.6476 439.053,82.8143 442.5,82.5 Z M 335.5,203.5 C 370.637,186.774 403.304,166.274 433.5,142C 442.754,134.428 450.087,125.428 455.5,115C 454.667,114.167 453.833,113.333 453,112.5C 448.948,113.05 444.782,114.217 440.5,116C 426.627,123.879 413.294,132.546 400.5,142C 377.426,160.904 355.76,181.404 335.5,203.5 Z"/></g>
<g><path style="opacity:1" fill="#1a1714" d="M 126.5,80.5 C 125.78,86.1377 125.447,91.8044 125.5,97.5C 124.837,95.5274 124.504,93.3608 124.5,91C 124.379,87.2178 125.046,83.7178 126.5,80.5 Z"/></g>
<g><path style="opacity:1" fill="#453b34" d="M 480.5,94.5 C 484.315,97.1274 486.315,100.794 486.5,105.5C 484.772,101.713 482.772,98.0461 480.5,94.5 Z"/></g>
<g><path style="opacity:0.582" fill="#fcfcfc" d="M 461.5,102.5 C 463.461,104.963 465.628,107.297 468,109.5C 468.497,111.81 468.663,114.143 468.5,116.5C 467.12,119.774 465.62,123.107 464,126.5C 451.17,142.661 436.337,156.828 419.5,169C 390.257,187.788 360.257,205.288 329.5,221.5C 327.079,221.878 324.746,222.545 322.5,223.5C 323.111,218.382 321.944,213.715 319,209.5C 318.184,208.177 317.017,207.511 315.5,207.5C 314.833,206.5 314.167,205.5 313.5,204.5C 321.12,199.213 328.12,193.213 334.5,186.5C 339.5,182.167 344.167,177.5 348.5,172.5C 376.074,142.457 408.407,118.623 445.5,101C 450.963,100.246 456.296,100.746 461.5,102.5 Z M 335.5,203.5 C 370.637,186.774 403.304,166.274 433.5,142C 442.754,134.428 450.087,125.428 455.5,115C 454.667,114.167 453.833,113.333 453,112.5C 448.948,113.05 444.782,114.217 440.5,116C 426.627,123.879 413.294,132.546 400.5,142C 377.426,160.904 355.76,181.404 335.5,203.5 Z"/></g>
<g><path style="opacity:1" fill="#403730" d="M 461.5,102.5 C 468.476,105.078 470.809,109.745 468.5,116.5C 468.663,114.143 468.497,111.81 468,109.5C 465.628,107.297 463.461,104.963 461.5,102.5 Z"/></g>
<g><path style="opacity:1" fill="#101316" d="M 310.5,113.5 C 310.579,114.93 310.246,116.264 309.5,117.5C 315.616,118.094 321.616,119.094 327.5,120.5C 327.5,120.833 327.5,121.167 327.5,121.5C 327.565,121.938 327.399,122.272 327,122.5C 320.726,119.653 314.226,118.987 307.5,120.5C 307.935,117.843 308.935,115.509 310.5,113.5 Z"/></g>
<g><path style="opacity:1" fill="#434c54" d="M 299.5,119.5 C 299.343,120.873 299.51,122.207 300,123.5C 302.235,121.798 304.735,120.798 307.5,120.5C 314.226,118.987 320.726,119.653 327,122.5C 327.399,122.272 327.565,121.938 327.5,121.5C 335.81,127.366 338.977,135.366 337,145.5C 336.216,150.373 334.383,154.706 331.5,158.5C 328.622,164.378 324.955,169.711 320.5,174.5C 319.833,174.833 319.167,175.167 318.5,175.5C 314.167,177.833 310.833,181.167 308.5,185.5C 297.802,194.537 287.135,203.537 276.5,212.5C 274.37,214.127 272.37,215.96 270.5,218C 269.833,218.667 269.167,218.667 268.5,218C 272.175,215.172 274.842,211.672 276.5,207.5C 278,203.827 280,200.494 282.5,197.5C 285.209,194.792 287.542,191.792 289.5,188.5C 292.109,183.617 295.443,179.284 299.5,175.5C 306.895,166.401 313.061,156.401 318,145.5C 318.497,142.854 318.664,140.187 318.5,137.5C 316.143,137.337 313.81,137.503 311.5,138C 310.944,138.383 310.611,138.883 310.5,139.5C 305.833,142.167 302.167,145.833 299.5,150.5C 299.262,152.404 298.262,153.738 296.5,154.5C 292.777,158.92 289.277,163.586 286,168.5C 284.878,170.407 284.045,172.407 283.5,174.5C 282.59,177.992 280.924,180.992 278.5,183.5C 274.102,190.299 270.769,197.633 268.5,205.5C 268.248,209.327 266.915,212.66 264.5,215.5C 263.108,217.273 261.941,219.273 261,221.5C 259.583,218.387 258.083,215.387 256.5,212.5C 255.662,212.158 255.328,211.492 255.5,210.5C 254.603,206.866 253.27,203.366 251.5,200C 252.479,197.567 253.145,195.067 253.5,192.5C 257.675,185.484 261.341,178.151 264.5,170.5C 266.406,166.078 268.572,161.744 271,157.5C 271.535,153.962 272.368,150.628 273.5,147.5C 273.34,149.199 273.506,150.866 274,152.5C 275.517,150.76 277.017,149.094 278.5,147.5C 282.073,143.356 285.406,139.022 288.5,134.5C 290.765,130.399 293.932,127.066 298,124.5C 298.198,122.618 298.698,120.952 299.5,119.5 Z"/></g>
<g><path style="opacity:1" fill="#385069" d="M 299.5,175.5 C 295.443,179.284 292.109,183.617 289.5,188.5C 287.852,189.81 286.186,191.143 284.5,192.5C 282.31,190.476 279.977,188.643 277.5,187C 278.337,185.989 278.67,184.822 278.5,183.5C 280.924,180.992 282.59,177.992 283.5,174.5C 288.613,168.378 292.946,161.711 296.5,154.5C 298.262,153.738 299.262,152.404 299.5,150.5C 303.5,147.167 307.167,143.5 310.5,139.5C 312.806,139.007 315.139,138.674 317.5,138.5C 317.579,141.271 317.079,143.937 316,146.5C 310.982,156.547 305.482,166.213 299.5,175.5 Z"/></g>
<g><path style="opacity:1" fill="#4d4844" d="M 479.5,137.5 C 477.88,141.082 475.547,144.082 472.5,146.5C 474.311,143.556 476.144,140.556 478,137.5C 478.69,136.262 479.19,136.262 479.5,137.5 Z"/></g>
<g><path style="opacity:1" fill="#0f1215" d="M 288.5,134.5 C 285.406,139.022 282.073,143.356 278.5,147.5C 280.625,142.257 283.958,137.923 288.5,134.5 Z"/></g>
<g><path style="opacity:1" fill="#0c0f13" d="M 310.5,139.5 C 307.167,143.5 303.5,147.167 299.5,150.5C 302.167,145.833 305.833,142.167 310.5,139.5 Z"/></g>
<g><path style="opacity:1" fill="#0e1114" d="M 299.5,175.5 C 305.482,166.213 310.982,156.547 316,146.5C 317.079,143.937 317.579,141.271 317.5,138.5C 315.139,138.674 312.806,139.007 310.5,139.5C 310.611,138.883 310.944,138.383 311.5,138C 313.81,137.503 316.143,137.337 318.5,137.5C 318.664,140.187 318.497,142.854 318,145.5C 313.061,156.401 306.895,166.401 299.5,175.5 Z"/></g>
<g><path style="opacity:1" fill="#212122" d="M 210.5,151.5 C 218.055,152.433 223.722,156.1 227.5,162.5C 221.182,154.729 213.182,152.396 203.5,155.5C 205.946,154.312 208.28,152.979 210.5,151.5 Z"/></g>
<g><path style="opacity:1" fill="#4e453f" d="M 472.5,147.5 C 466.833,153.833 460.833,159.833 454.5,165.5C 459.5,158.5 465.5,152.5 472.5,147.5 Z"/></g>
<g><path style="opacity:1" fill="#958a82" d="M 227.5,162.5 C 227.427,164.027 228.094,165.027 229.5,165.5C 232.503,170.175 235.503,174.841 238.5,179.5C 240.775,184.429 243.441,189.096 246.5,193.5C 249.249,199.333 252.249,204.999 255.5,210.5C 255.328,211.492 255.662,212.158 256.5,212.5C 257.426,216.947 258.76,221.28 260.5,225.5C 260.061,227.104 259.394,228.604 258.5,230C 258.639,231.301 259.305,232.134 260.5,232.5C 260.511,234.017 261.177,235.184 262.5,236C 258.457,237.717 254.29,238.883 250,239.5C 249.667,242.167 249.333,244.833 249,247.5C 247.981,245.498 247.148,243.498 246.5,241.5C 246.778,239.654 246.111,238.32 244.5,237.5C 242.466,238.559 240.466,239.559 238.5,240.5C 236.241,236.604 234.241,236.604 232.5,240.5C 231.206,241.29 230.039,242.29 229,243.5C 227.723,241.253 226.223,239.253 224.5,237.5C 220.59,228.674 215.923,220.341 210.5,212.5C 203.653,204.152 198.32,194.819 194.5,184.5C 193.671,179.547 193.337,174.547 193.5,169.5C 194.176,165.813 195.676,162.48 198,159.5C 199.451,157.536 201.284,156.203 203.5,155.5C 213.182,152.396 221.182,154.729 227.5,162.5 Z"/></g>
<g><path style="opacity:1" fill="#2d2621" d="M 337.5,156.5 C 337.631,157.239 337.464,157.906 337,158.5C 331.276,163.629 325.776,168.962 320.5,174.5C 324.955,169.711 328.622,164.378 331.5,158.5C 331.351,159.552 331.517,160.552 332,161.5C 333.704,159.627 335.537,157.96 337.5,156.5 Z"/></g>
<g><path style="opacity:1" fill="#0f1316" d="M 296.5,154.5 C 292.946,161.711 288.613,168.378 283.5,174.5C 284.045,172.407 284.878,170.407 286,168.5C 289.277,163.586 292.777,158.92 296.5,154.5 Z"/></g>
<g><path style="opacity:1" fill="#373431" d="M 214.5,176.5 C 213.542,176.047 212.708,175.381 212,174.5C 211.517,175.448 211.351,176.448 211.5,177.5C 210.156,175.815 210.323,174.148 212,172.5C 213.481,173.471 214.315,174.804 214.5,176.5 Z"/></g>
<g><path style="opacity:1" fill="#121213" d="M 242.5,164.5 C 246.293,169.316 249.293,174.65 251.5,180.5C 247.707,175.684 244.707,170.35 242.5,164.5 Z"/></g>
<g><path style="opacity:1" fill="#2b2827" d="M 193.5,169.5 C 193.337,174.547 193.671,179.547 194.5,184.5C 193.778,184.082 193.278,183.416 193,182.5C 192.186,177.98 192.353,173.646 193.5,169.5 Z"/></g>
<g><path style="opacity:1" fill="#181819" d="M 229.5,165.5 C 233.992,169.138 236.992,173.805 238.5,179.5C 235.503,174.841 232.503,170.175 229.5,165.5 Z"/></g>
<g><path style="opacity:1" fill="#eaeaea" d="M 214.5,176.5 C 223.371,190.914 231.704,205.58 239.5,220.5C 239.657,221.873 239.49,223.207 239,224.5C 238.623,223.058 237.79,222.058 236.5,221.5C 229.175,206.175 220.842,191.509 211.5,177.5C 211.351,176.448 211.517,175.448 212,174.5C 212.708,175.381 213.542,176.047 214.5,176.5 Z"/></g>
<g><path style="opacity:1" fill="#191513" d="M 318.5,175.5 C 315.5,179.167 312.167,182.5 308.5,185.5C 310.833,181.167 314.167,177.833 318.5,175.5 Z"/></g>
<g><path style="opacity:1" fill="#4a4643" d="M 348.5,172.5 C 344.167,177.5 339.5,182.167 334.5,186.5C 334.062,186.565 333.728,186.399 333.5,186C 338.364,180.598 343.364,176.098 348.5,172.5 Z"/></g>
<g><path style="opacity:1" fill="#181818" d="M 259.5,166.5 C 260.6,168.277 261.434,170.277 262,172.5C 262.708,171.619 263.542,170.953 264.5,170.5C 261.341,178.151 257.675,185.484 253.5,192.5C 253.421,191.07 253.754,189.736 254.5,188.5C 252.924,186.021 251.924,183.354 251.5,180.5C 252.892,182.273 254.059,184.273 255,186.5C 260.238,180.664 261.738,173.997 259.5,166.5 Z"/></g>
<g><path style="opacity:1" fill="#0e1215" d="M 278.5,183.5 C 278.67,184.822 278.337,185.989 277.5,187C 279.977,188.643 282.31,190.476 284.5,192.5C 286.186,191.143 287.852,189.81 289.5,188.5C 287.542,191.792 285.209,194.792 282.5,197.5C 283.214,193.3 281.381,190.3 277,188.5C 274.121,194.259 271.287,199.925 268.5,205.5C 270.769,197.633 274.102,190.299 278.5,183.5 Z"/></g>
<g><path style="opacity:1" fill="#374f67" d="M 282.5,197.5 C 280,200.494 278,203.827 276.5,207.5C 271.866,212.305 267.366,217.305 263,222.5C 263.437,220.243 263.937,217.91 264.5,215.5C 266.915,212.66 268.248,209.327 268.5,205.5C 271.287,199.925 274.121,194.259 277,188.5C 281.381,190.3 283.214,193.3 282.5,197.5 Z"/></g>
<g><path style="opacity:1" fill="#121314" d="M 253.5,192.5 C 253.145,195.067 252.479,197.567 251.5,200C 253.27,203.366 254.603,206.866 255.5,210.5C 252.249,204.999 249.249,199.333 246.5,193.5C 248.136,194.749 249.303,196.416 250,198.5C 250.941,196.273 252.108,194.273 253.5,192.5 Z"/></g>
<g><path style="opacity:1" fill="#222222" d="M 181.5,200.5 C 183.149,201.649 184.649,202.982 186,204.5C 189.862,205.172 193.362,206.505 196.5,208.5C 188.351,205.547 180.018,204.88 171.5,206.5C 174.804,204.583 178.471,203.416 182.5,203C 181.748,202.329 181.414,201.496 181.5,200.5 Z"/></g>
<g><path style="opacity:1" fill="#1a1817" d="M 313.5,204.5 C 314.167,205.5 314.833,206.5 315.5,207.5C 312.082,205.878 308.415,204.878 304.5,204.5C 298.387,205.861 292.387,207.527 286.5,209.5C 294.692,203.891 303.692,202.224 313.5,204.5 Z"/></g>
<g><path style="opacity:1" fill="#424c56" d="M 196.5,208.5 C 201.191,209.678 205.524,211.678 209.5,214.5C 210.298,214.043 210.631,213.376 210.5,212.5C 215.923,220.341 220.59,228.674 224.5,237.5C 226.023,240.345 227.023,243.345 227.5,246.5C 222.501,244.36 217.834,241.526 213.5,238C 208.938,235.22 204.272,232.72 199.5,230.5C 195.856,227.18 191.522,225.18 186.5,224.5C 185.209,224.263 184.209,224.596 183.5,225.5C 187.745,230.236 192.745,234.069 198.5,237C 207.5,240.667 216.5,244.333 225.5,248C 224.748,248.671 224.414,249.504 224.5,250.5C 221.158,253.992 218.158,257.825 215.5,262C 213.243,261.563 210.91,261.063 208.5,260.5C 203.005,257.924 197.338,255.591 191.5,253.5C 188.506,251 185.173,249 181.5,247.5C 179.181,247.008 177.181,246.008 175.5,244.5C 176.239,244.631 176.906,244.464 177.5,244C 173.332,240.664 169.332,237.164 165.5,233.5C 161.433,226.779 160.766,219.779 163.5,212.5C 163.833,211.167 164.167,209.833 164.5,208.5C 166.833,207.833 169.167,207.167 171.5,206.5C 180.018,204.88 188.351,205.547 196.5,208.5 Z"/></g>
<g><path style="opacity:1" fill="#55626f" d="M 315.5,207.5 C 317.017,207.511 318.184,208.177 319,209.5C 321.944,213.715 323.111,218.382 322.5,223.5C 322.565,223.938 322.399,224.272 322,224.5C 321.667,223.833 321.333,223.167 321,222.5C 318.812,228.82 315.645,234.486 311.5,239.5C 306.161,243.84 300.828,248.173 295.5,252.5C 293.147,253.34 291.147,254.674 289.5,256.5C 283.182,258.992 277.182,261.992 271.5,265.5C 267.863,266.263 264.53,267.597 261.5,269.5C 258.933,269.855 256.433,270.521 254,271.5C 253.228,271.355 252.561,271.022 252,270.5C 250.5,266 249,261.5 247.5,257C 248.973,254.767 250.973,253.267 253.5,252.5C 263.643,249.76 272.976,245.427 281.5,239.5C 284.37,238.567 286.704,236.9 288.5,234.5C 293.547,232.292 297.547,228.792 300.5,224C 297.451,224.294 294.785,225.461 292.5,227.5C 292.5,228.167 292.167,228.5 291.5,228.5C 291.44,227.957 291.107,227.624 290.5,227.5C 288.581,228.612 286.914,229.946 285.5,231.5C 284.341,233.25 282.674,234.25 280.5,234.5C 277.669,235.079 275.336,236.412 273.5,238.5C 272.504,238.414 271.671,238.748 271,239.5C 268.725,235.268 266.225,231.268 263.5,227.5C 262.708,226.033 262.708,224.7 263.5,223.5C 268.571,220.974 273.238,217.974 277.5,214.5C 280.052,212.057 283.052,210.39 286.5,209.5C 292.387,207.527 298.387,205.861 304.5,204.5C 308.415,204.878 312.082,205.878 315.5,207.5 Z"/></g>
<g><path style="opacity:1" fill="#15171a" d="M 163.5,212.5 C 160.766,219.779 161.433,226.779 165.5,233.5C 164.542,233.047 163.708,232.381 163,231.5C 160.365,225.678 159.865,219.678 161.5,213.5C 162.167,213.167 162.833,212.833 163.5,212.5 Z"/></g>
<g><path style="opacity:1" fill="#0e0f11" d="M 276.5,207.5 C 274.842,211.672 272.175,215.172 268.5,218C 269.167,218.667 269.833,218.667 270.5,218C 272.37,215.96 274.37,214.127 276.5,212.5C 276.328,213.492 276.662,214.158 277.5,214.5C 273.238,217.974 268.571,220.974 263.5,223.5C 262.708,224.7 262.708,226.033 263.5,227.5C 260.227,228.062 259.227,229.729 260.5,232.5C 259.305,232.134 258.639,231.301 258.5,230C 259.394,228.604 260.061,227.104 260.5,225.5C 258.76,221.28 257.426,216.947 256.5,212.5C 258.083,215.387 259.583,218.387 261,221.5C 261.941,219.273 263.108,217.273 264.5,215.5C 263.937,217.91 263.437,220.243 263,222.5C 267.366,217.305 271.866,212.305 276.5,207.5 Z"/></g>
<g><path style="opacity:1" fill="#222121" d="M 239.5,220.5 C 242.097,224.79 243.597,229.457 244,234.5C 240.971,230.438 238.471,226.105 236.5,221.5C 237.79,222.058 238.623,223.058 239,224.5C 239.49,223.207 239.657,221.873 239.5,220.5 Z"/></g>
<g><path style="opacity:1" fill="#2c2826" d="M 366.5,222.5 C 371.975,223.489 377.642,223.822 383.5,223.5C 370.169,224.679 356.669,225.679 343,226.5C 340.639,226.496 338.473,226.163 336.5,225.5C 346.515,224.499 356.515,223.499 366.5,222.5 Z"/></g>
<g><path style="opacity:1" fill="#6c6c6c" d="M 383.5,223.5 C 395.479,223.162 406.812,225.662 417.5,231C 423.149,237.167 423.982,244 420,251.5C 413.598,257.359 406.098,261.026 397.5,262.5C 391.741,261.734 386.074,262.401 380.5,264.5C 343.576,268.177 306.576,269.177 269.5,267.5C 270.243,266.818 270.909,266.151 271.5,265.5C 278.086,263.54 284.086,260.54 289.5,256.5C 292.198,256.155 294.198,254.822 295.5,252.5C 296.756,252.539 297.756,252.039 298.5,251C 314.908,250.84 330.575,250.34 345.5,249.5C 346.209,248.596 347.209,248.263 348.5,248.5C 354.536,249.498 360.536,249.165 366.5,247.5C 373.672,246.333 381.006,245.333 388.5,244.5C 391.271,244.579 393.937,244.079 396.5,243C 390.984,242.183 385.65,242.349 380.5,243.5C 377.167,243.5 373.833,243.5 370.5,243.5C 358.41,242.101 346.41,242.768 334.5,245.5C 324.823,245.805 315.156,245.972 305.5,246C 307.706,243.963 309.706,241.797 311.5,239.5C 315.108,236.967 317.775,233.634 319.5,229.5C 324.858,228.776 330.191,227.943 335.5,227C 334.906,226.536 334.239,226.369 333.5,226.5C 334.209,225.596 335.209,225.263 336.5,225.5C 338.473,226.163 340.639,226.496 343,226.5C 356.669,225.679 370.169,224.679 383.5,223.5 Z"/></g>
<g><path style="opacity:1" fill="#615449" d="M 183.5,225.5 C 184.209,224.596 185.209,224.263 186.5,224.5C 190.586,226.87 194.919,228.87 199.5,230.5C 202.079,233.135 205.079,235.301 208.5,237C 199.448,234.809 191.115,230.975 183.5,225.5 Z"/></g>
<g><path style="opacity:1" fill="#221f1d" d="M 329.5,221.5 C 327.058,223.226 324.391,224.726 321.5,226C 325.486,226.499 329.486,226.666 333.5,226.5C 334.239,226.369 334.906,226.536 335.5,227C 330.191,227.943 324.858,228.776 319.5,229.5C 317.775,233.634 315.108,236.967 311.5,239.5C 315.645,234.486 318.812,228.82 321,222.5C 321.333,223.167 321.667,223.833 322,224.5C 322.399,224.272 322.565,223.938 322.5,223.5C 324.746,222.545 327.079,221.878 329.5,221.5 Z"/></g>
<g><path style="opacity:1" fill="#131414" d="M 186.5,224.5 C 191.522,225.18 195.856,227.18 199.5,230.5C 194.919,228.87 190.586,226.87 186.5,224.5 Z"/></g>
<g><path style="opacity:1" fill="#8a684b" d="M 263.5,227.5 C 264.212,229.928 265.212,232.261 266.5,234.5C 266,234.833 265.5,235.167 265,235.5C 263.357,234.685 261.857,233.685 260.5,232.5C 259.227,229.729 260.227,228.062 263.5,227.5 Z"/></g>
<g><path style="opacity:1" fill="#6c6c6c" d="M 285.5,231.5 C 287.199,231.34 288.866,231.506 290.5,232C 289.619,232.708 288.953,233.542 288.5,234.5C 285.63,235.433 283.296,237.1 281.5,239.5C 272.098,243.87 262.764,248.204 253.5,252.5C 251.532,248.983 250.532,244.983 250.5,240.5C 256.055,240.056 261.389,238.722 266.5,236.5C 268.211,237.581 269.711,238.915 271,240.5C 272.301,240.361 273.134,239.695 273.5,238.5C 276.331,237.921 278.664,236.588 280.5,234.5C 282.674,234.25 284.341,233.25 285.5,231.5 Z"/></g>
<g><path style="opacity:1" fill="#1a1b1d" d="M 288.5,234.5 C 288.953,233.542 289.619,232.708 290.5,232C 288.866,231.506 287.199,231.34 285.5,231.5C 286.914,229.946 288.581,228.612 290.5,227.5C 291.107,227.624 291.44,227.957 291.5,228.5C 290.711,228.783 290.044,229.283 289.5,230C 292.596,230.927 294.93,229.927 296.5,227C 295.181,226.805 293.847,226.972 292.5,227.5C 294.785,225.461 297.451,224.294 300.5,224C 297.547,228.792 293.547,232.292 288.5,234.5 Z"/></g>
<g><path style="opacity:1" fill="#e2e2e2" d="M 291.5,228.5 C 292.167,228.5 292.5,228.167 292.5,227.5C 293.847,226.972 295.181,226.805 296.5,227C 294.93,229.927 292.596,230.927 289.5,230C 290.044,229.283 290.711,228.783 291.5,228.5 Z"/></g>
<g><path style="opacity:1" fill="#101214" d="M 165.5,233.5 C 169.332,237.164 173.332,240.664 177.5,244C 176.906,244.464 176.239,244.631 175.5,244.5C 173.483,243.471 171.483,242.471 169.5,241.5C 169.611,240.883 169.944,240.383 170.5,240C 168.21,238.223 166.543,236.056 165.5,233.5 Z"/></g>
<g><path style="opacity:1" fill="#101011" d="M 246.5,241.5 C 246.565,241.938 246.399,242.272 246,242.5C 244.915,239.183 243.415,238.849 241.5,241.5C 241.863,242.183 242.196,242.85 242.5,243.5C 240.596,243.262 239.262,242.262 238.5,240.5C 240.466,239.559 242.466,238.559 244.5,237.5C 246.111,238.32 246.778,239.654 246.5,241.5 Z"/></g>
<g><path style="opacity:1" fill="#121314" d="M 280.5,234.5 C 278.664,236.588 276.331,237.921 273.5,238.5C 275.336,236.412 277.669,235.079 280.5,234.5 Z"/></g>
<g><path style="opacity:1" fill="#151718" d="M 288.5,234.5 C 286.704,236.9 284.37,238.567 281.5,239.5C 283.296,237.1 285.63,235.433 288.5,234.5 Z"/></g>
<g><path style="opacity:1" fill="#4f4945" d="M 238.5,240.5 C 239.262,242.262 240.596,243.262 242.5,243.5C 244.004,245.836 246.004,247.669 248.5,249C 247.167,251.667 245.167,253.667 242.5,255C 237.869,255.782 233.369,256.949 229,258.5C 228.857,263.305 229.69,267.971 231.5,272.5C 226.833,279.833 222.167,287.167 217.5,294.5C 217.846,295.696 218.346,295.696 219,294.5C 219.464,295.094 219.631,295.761 219.5,296.5C 218.115,297.574 216.949,298.907 216,300.5C 215.667,299.833 215.333,299.167 215,298.5C 211.971,302.562 209.471,306.895 207.5,311.5C 207.5,312.5 207.5,313.5 207.5,314.5C 205.833,316.5 204.167,318.5 202.5,320.5C 198.663,326.17 195.33,332.17 192.5,338.5C 184.131,351.238 177.298,364.905 172,379.5C 170.561,384.762 170.228,390.096 171,395.5C 172.292,396.791 173.458,396.791 174.5,395.5C 177.394,394.118 179.894,392.118 182,389.5C 186.624,382.586 190.457,375.252 193.5,367.5C 193.328,366.508 193.662,365.842 194.5,365.5C 197.54,362.086 199.54,358.086 200.5,353.5C 201.376,349.418 203.043,345.751 205.5,342.5C 208.458,338.309 210.458,333.642 211.5,328.5C 217.989,316.048 223.322,303.048 227.5,289.5C 227.928,286.215 228.928,283.215 230.5,280.5C 231.158,279.602 231.824,278.602 232.5,277.5C 235.596,285.621 238.596,293.788 241.5,302C 241.057,303.825 240.723,305.658 240.5,307.5C 237.597,312.86 235.264,318.527 233.5,324.5C 232.879,339.974 232.213,355.308 231.5,370.5C 231.093,358.131 230.593,345.798 230,333.5C 220.781,357.272 209.447,379.938 196,401.5C 191.701,406.805 186.534,410.972 180.5,414C 173.944,416.278 167.611,415.778 161.5,412.5C 159.481,414.19 157.481,415.856 155.5,417.5C 156.203,415.284 157.536,413.451 159.5,412C 155.467,407.101 152.634,401.601 151,395.5C 150.292,396.381 149.458,397.047 148.5,397.5C 148.685,395.804 149.519,394.471 151,393.5C 151.771,385.313 153.437,377.313 156,369.5C 162.033,355.101 168.866,341.101 176.5,327.5C 176.376,326.893 176.043,326.56 175.5,326.5C 177.5,325.167 179.167,323.5 180.5,321.5C 183.669,317.167 186.336,312.5 188.5,307.5C 191.302,301.232 194.635,295.232 198.5,289.5C 197.675,288.614 196.675,288.281 195.5,288.5C 195.5,288.167 195.5,287.833 195.5,287.5C 197.696,287.435 199.696,286.768 201.5,285.5C 202.653,284.313 202.653,283.313 201.5,282.5C 204.823,278.54 208.156,274.54 211.5,270.5C 216.328,264.183 220.662,257.516 224.5,250.5C 228.126,247.905 230.792,244.572 232.5,240.5C 234.241,236.604 236.241,236.604 238.5,240.5 Z"/></g>
<g><path style="opacity:1" fill="#121212" d="M 183.5,225.5 C 191.115,230.975 199.448,234.809 208.5,237C 205.079,235.301 202.079,233.135 199.5,230.5C 204.272,232.72 208.938,235.22 213.5,238C 217.834,241.526 222.501,244.36 227.5,246.5C 227.023,243.345 226.023,240.345 224.5,237.5C 226.223,239.253 227.723,241.253 229,243.5C 230.039,242.29 231.206,241.29 232.5,240.5C 230.792,244.572 228.126,247.905 224.5,250.5C 224.414,249.504 224.748,248.671 225.5,248C 216.5,244.333 207.5,240.667 198.5,237C 192.745,234.069 187.745,230.236 183.5,225.5 Z"/></g>
<g><path style="opacity:1" fill="#1d1d1d" d="M 370.5,243.5 C 358.457,243.506 346.457,244.172 334.5,245.5C 346.41,242.768 358.41,242.101 370.5,243.5 Z"/></g>
<g><path style="opacity:1" fill="#151515" d="M 380.5,243.5 C 385.65,242.349 390.984,242.183 396.5,243C 393.937,244.079 391.271,244.579 388.5,244.5C 386.052,243.527 383.385,243.194 380.5,243.5 Z"/></g>
<g><path style="opacity:1" fill="#ebebeb" d="M 370.5,243.5 C 373.833,243.5 377.167,243.5 380.5,243.5C 383.385,243.194 386.052,243.527 388.5,244.5C 381.006,245.333 373.672,246.333 366.5,247.5C 360.491,247.701 354.491,248.034 348.5,248.5C 347.209,248.263 346.209,248.596 345.5,249.5C 338.789,249.713 332.123,249.38 325.5,248.5C 325.389,247.883 325.056,247.383 324.5,247C 328.025,246.821 331.359,246.321 334.5,245.5C 346.457,244.172 358.457,243.506 370.5,243.5 Z"/></g>
<g><path style="opacity:1" fill="#151617" d="M 281.5,239.5 C 272.976,245.427 263.643,249.76 253.5,252.5C 262.764,248.204 272.098,243.87 281.5,239.5 Z"/></g>
<g><path style="opacity:1" fill="#2a2a2a" d="M 366.5,247.5 C 360.536,249.165 354.536,249.498 348.5,248.5C 354.491,248.034 360.491,247.701 366.5,247.5 Z"/></g>
<g><path style="opacity:1" fill="#1f1c1a" d="M 311.5,239.5 C 309.706,241.797 307.706,243.963 305.5,246C 315.156,245.972 324.823,245.805 334.5,245.5C 331.359,246.321 328.025,246.821 324.5,247C 325.056,247.383 325.389,247.883 325.5,248.5C 332.123,249.38 338.789,249.713 345.5,249.5C 330.575,250.34 314.908,250.84 298.5,251C 297.756,252.039 296.756,252.539 295.5,252.5C 300.828,248.173 306.161,243.84 311.5,239.5 Z"/></g>
<g><path style="opacity:1" fill="#48617b" d="M 325.5,248.5 C 322.696,249.638 319.696,249.805 316.5,249C 319.416,247.182 322.416,247.016 325.5,248.5 Z"/></g>
<g><path style="opacity:1" fill="#191919" d="M 181.5,247.5 C 185.173,249 188.506,251 191.5,253.5C 189.217,253.392 187.217,252.559 185.5,251C 178.174,250.5 170.841,250.334 163.5,250.5C 169.653,249.672 175.987,249.172 182.5,249C 181.944,248.617 181.611,248.117 181.5,247.5 Z"/></g>
<g><path style="opacity:1" fill="#68492f" d="M 163.5,250.5 C 170.841,250.334 178.174,250.5 185.5,251C 187.217,252.559 189.217,253.392 191.5,253.5C 172.112,257.578 152.779,261.911 133.5,266.5C 120.799,269.513 108.133,272.179 95.5,274.5C 89.2087,274.495 83.2087,275.495 77.5,277.5C 65.4451,280.69 53.7784,285.19 42.5,291C 38.0841,293.412 34.2508,296.578 31,300.5C 27.4948,312.489 31.6614,320.489 43.5,324.5C 51.3704,327.152 59.3704,327.819 67.5,326.5C 76.4197,325.463 85.4197,324.796 94.5,324.5C 98.9639,324.402 103.297,323.569 107.5,322C 112.833,321.333 118.167,321.333 123.5,322C 117.5,328 111.5,334 105.5,340C 102.996,340.698 100.663,341.531 98.5,342.5C 91.9503,342.454 85.617,343.121 79.5,344.5C 79.1583,345.338 78.4916,345.672 77.5,345.5C 66.6649,344.623 55.6649,343.957 44.5,343.5C 30.8665,342.606 20.6998,336.273 14,324.5C 12.4511,321.688 11.6178,318.688 11.5,315.5C 11.0906,308.035 11.7573,300.702 13.5,293.5C 17.2612,285.238 23.2612,279.071 31.5,275C 43.6694,267.889 56.6694,263.055 70.5,260.5C 75.422,260.13 80.0886,259.13 84.5,257.5C 110.531,252.392 136.865,250.059 163.5,250.5 Z"/></g>
<g><path style="opacity:1" fill="#181512" d="M 191.5,253.5 C 197.338,255.591 203.005,257.924 208.5,260.5C 206.118,259.454 203.785,259.454 201.5,260.5C 201.611,259.883 201.944,259.383 202.5,259C 199.495,257.83 196.495,256.664 193.5,255.5C 173.489,259.168 153.489,262.835 133.5,266.5C 152.779,261.911 172.112,257.578 191.5,253.5 Z"/></g>
<g><path style="opacity:1" fill="#18191a" d="M 263.5,227.5 C 266.225,231.268 268.725,235.268 271,239.5C 271.671,238.748 272.504,238.414 273.5,238.5C 273.134,239.695 272.301,240.361 271,240.5C 269.711,238.915 268.211,237.581 266.5,236.5C 261.389,238.722 256.055,240.056 250.5,240.5C 250.532,244.983 251.532,248.983 253.5,252.5C 250.973,253.267 248.973,254.767 247.5,257C 249,261.5 250.5,266 252,270.5C 252.561,271.022 253.228,271.355 254,271.5C 256.433,270.521 258.933,269.855 261.5,269.5C 260.158,270.793 258.491,271.626 256.5,272C 257.823,272.816 258.489,273.983 258.5,275.5C 257.102,273.891 255.435,273.058 253.5,273C 256.65,278.946 259.316,285.112 261.5,291.5C 265.182,302.526 269.848,313.193 275.5,323.5C 264.567,307.812 256.567,290.978 251.5,273C 249.32,267.122 247.153,261.289 245,255.5C 239.737,256.773 234.571,258.273 229.5,260C 234.723,280.613 242.056,300.446 251.5,319.5C 250.504,334.658 250.17,349.991 250.5,365.5C 249.669,349.338 249.169,333.005 249,316.5C 246.726,312.286 244.726,307.953 243,303.5C 242.392,305.066 241.558,306.4 240.5,307.5C 240.723,305.658 241.057,303.825 241.5,302C 238.596,293.788 235.596,285.621 232.5,277.5C 231.824,278.602 231.158,279.602 230.5,280.5C 230.649,279.448 230.483,278.448 230,277.5C 226.98,284.217 223.48,290.551 219.5,296.5C 219.631,295.761 219.464,295.094 219,294.5C 218.346,295.696 217.846,295.696 217.5,294.5C 222.167,287.167 226.833,279.833 231.5,272.5C 229.69,267.971 228.857,263.305 229,258.5C 233.369,256.949 237.869,255.782 242.5,255C 245.167,253.667 247.167,251.667 248.5,249C 246.004,247.669 244.004,245.836 242.5,243.5C 242.196,242.85 241.863,242.183 241.5,241.5C 243.415,238.849 244.915,239.183 246,242.5C 246.399,242.272 246.565,241.938 246.5,241.5C 247.148,243.498 247.981,245.498 249,247.5C 249.333,244.833 249.667,242.167 250,239.5C 254.29,238.883 258.457,237.717 262.5,236C 261.177,235.184 260.511,234.017 260.5,232.5C 261.857,233.685 263.357,234.685 265,235.5C 265.5,235.167 266,234.833 266.5,234.5C 265.212,232.261 264.212,229.928 263.5,227.5 Z"/></g>
<g><path style="opacity:1" fill="#121314" d="M 295.5,252.5 C 294.198,254.822 292.198,256.155 289.5,256.5C 291.147,254.674 293.147,253.34 295.5,252.5 Z"/></g>
<g><path style="opacity:1" fill="#776d68" d="M 201.5,260.5 C 198.296,261.383 195.629,263.05 193.5,265.5C 187.486,267.835 182.152,271.169 177.5,275.5C 175.973,275.427 174.973,276.094 174.5,277.5C 171.941,277.198 169.607,277.532 167.5,278.5C 148.41,282.355 129.41,287.022 110.5,292.5C 104.328,293.586 98.9948,296.253 94.5,300.5C 97.9795,302.662 101.813,303.662 106,303.5C 112.677,303.087 119.177,302.421 125.5,301.5C 130.927,299.863 136.593,298.863 142.5,298.5C 143.552,298.351 144.552,298.517 145.5,299C 138.833,305.667 132.167,312.333 125.5,319C 112.714,321.252 100.047,320.752 87.5,317.5C 77.8747,312.917 74.0414,305.25 76,294.5C 82.2796,284.101 91.4463,277.768 103.5,275.5C 113.618,272.488 123.618,269.488 133.5,266.5C 153.489,262.835 173.489,259.168 193.5,255.5C 196.495,256.664 199.495,257.83 202.5,259C 201.944,259.383 201.611,259.883 201.5,260.5 Z"/></g>
<g><path style="opacity:1" fill="#465d75" d="M 275.5,323.5 C 282.7,336.569 291.366,348.569 301.5,359.5C 303.094,362.764 305.427,365.431 308.5,367.5C 310.453,371.12 313.119,374.12 316.5,376.5C 321.492,383.823 327.825,389.823 335.5,394.5C 343.928,401.225 352.595,407.725 361.5,414C 373.478,421.325 386.145,426.991 399.5,431C 422.213,431.308 435.713,420.141 440,397.5C 441.253,385.274 439.253,373.607 434,362.5C 429.488,352.128 423.988,342.461 417.5,333.5C 414.217,327.217 409.55,322.217 403.5,318.5C 400.052,313.713 395.719,310.046 390.5,307.5C 389.415,305.413 387.749,304.08 385.5,303.5C 376.184,296.17 366.184,289.837 355.5,284.5C 347.057,279.441 338.39,274.608 329.5,270C 339.345,269.305 349.179,268.471 359,267.5C 360.924,267.581 362.757,267.914 364.5,268.5C 388.546,280.124 409.713,295.79 428,315.5C 441.855,332.544 452.022,351.544 458.5,372.5C 457.842,373.793 457.508,375.293 457.5,377C 458.013,385 458.679,392.833 459.5,400.5C 453.992,429.676 436.658,446.676 407.5,451.5C 393.76,450.198 380.76,446.365 368.5,440C 342.439,426.435 319.773,408.602 300.5,386.5C 298.234,382.564 295.234,379.231 291.5,376.5C 288.537,372.202 285.203,368.202 281.5,364.5C 280.92,362.251 279.587,360.585 277.5,359.5C 277.573,357.973 276.906,356.973 275.5,356.5C 265.932,345.25 257.932,332.916 251.5,319.5C 242.056,300.446 234.723,280.613 229.5,260C 234.571,258.273 239.737,256.773 245,255.5C 247.153,261.289 249.32,267.122 251.5,273C 256.567,290.978 264.567,307.812 275.5,323.5 Z M 357.5,350.5 C 363.477,364.809 361.81,378.309 352.5,391C 352.759,392.261 353.426,393.261 354.5,394C 368.681,404.424 384.015,412.758 400.5,419C 405.94,420.174 410.94,419.174 415.5,416C 425.732,407.075 430.065,396.241 428.5,383.5C 425.128,372.923 420.795,362.756 415.5,353C 411.795,354.01 408.128,355.343 404.5,357C 396.241,359.134 388.074,358.967 380,356.5C 379.667,356.833 379.333,357.167 379,357.5C 372.192,354.287 365.026,351.954 357.5,350.5 Z"/></g>
<g><path style="opacity:1" fill="#221d19" d="M 84.5,257.5 C 80.0886,259.13 75.422,260.13 70.5,260.5C 74.862,258.656 79.5286,257.656 84.5,257.5 Z"/></g>
<g><path style="opacity:1" fill="#101113" d="M 224.5,250.5 C 220.662,257.516 216.328,264.183 211.5,270.5C 211.962,268.243 212.962,266.243 214.5,264.5C 212.435,263.143 210.435,261.81 208.5,260.5C 210.91,261.063 213.243,261.563 215.5,262C 218.158,257.825 221.158,253.992 224.5,250.5 Z"/></g>
<g><path style="opacity:1" fill="#53687e" d="M 208.5,260.5 C 210.435,261.81 212.435,263.143 214.5,264.5C 212.962,266.243 211.962,268.243 211.5,270.5C 208.156,274.54 204.823,278.54 201.5,282.5C 199.5,284.167 197.5,285.833 195.5,287.5C 195.5,287.833 195.5,288.167 195.5,288.5C 194.849,287.909 194.182,287.243 193.5,286.5C 190.171,288.506 187.171,290.839 184.5,293.5C 182.853,295.326 180.853,296.66 178.5,297.5C 174.949,299.111 171.949,301.444 169.5,304.5C 168.738,306.262 167.404,307.262 165.5,307.5C 162.911,308.419 160.911,310.086 159.5,312.5C 156.167,315.167 153.167,318.167 150.5,321.5C 149.761,321.369 149.094,321.536 148.5,322C 144.943,326.292 141.277,330.459 137.5,334.5C 132.841,340.325 128.008,345.992 123,351.5C 104.498,367.997 88.1642,386.33 74,406.5C 69.9829,412.863 66.8162,419.53 64.5,426.5C 63.0092,429.186 62.3425,432.186 62.5,435.5C 62.3425,438.814 63.0092,441.814 64.5,444.5C 67.64,450.125 72.4733,453.125 79,453.5C 84.1896,452.657 89.0229,450.824 93.5,448C 113.581,433.086 131.915,416.253 148.5,397.5C 149.458,397.047 150.292,396.381 151,395.5C 152.634,401.601 155.467,407.101 159.5,412C 157.536,413.451 156.203,415.284 155.5,417.5C 147.372,427.462 138.372,436.629 128.5,445C 118.34,454.16 107.34,462.16 95.5,469C 64.2566,478.362 46.9232,466.695 43.5,434C 45.6754,420.152 50.5087,407.319 58,395.5C 62.3333,389.5 66.6667,383.5 71,377.5C 78.9967,367.672 87.4967,358.338 96.5,349.5C 97.2389,349.631 97.9056,349.464 98.5,349C 115.851,331.756 132.851,314.256 149.5,296.5C 155.926,290.406 162.926,285.073 170.5,280.5C 172.404,280.262 173.738,279.262 174.5,277.5C 174.973,276.094 175.973,275.427 177.5,275.5C 183.178,272.664 188.511,269.331 193.5,265.5C 195.629,263.05 198.296,261.383 201.5,260.5C 203.785,259.454 206.118,259.454 208.5,260.5 Z"/></g>
<g><path style="opacity:1" fill="#161718" d="M 289.5,256.5 C 284.086,260.54 278.086,263.54 271.5,265.5C 277.182,261.992 283.182,258.992 289.5,256.5 Z"/></g>
<g><path style="opacity:1" fill="#272727" d="M 397.5,262.5 C 391.847,263.275 386.18,263.942 380.5,264.5C 386.074,262.401 391.741,261.734 397.5,262.5 Z"/></g>
<g><path style="opacity:1" fill="#141516" d="M 380.5,264.5 C 376.516,265.413 372.349,266.079 368,266.5C 366.319,266.608 365.152,267.275 364.5,268.5C 362.757,267.914 360.924,267.581 359,267.5C 349.179,268.471 339.345,269.305 329.5,270C 338.39,274.608 347.057,279.441 355.5,284.5C 345.188,279.678 334.855,274.845 324.5,270C 310.5,269.333 296.5,269.333 282.5,270C 281.833,270.333 281.167,270.667 280.5,271C 283.457,271.279 286.123,272.113 288.5,273.5C 286.738,273.643 285.071,273.309 283.5,272.5C 282.702,272.957 282.369,273.624 282.5,274.5C 281.038,273.542 279.705,272.376 278.5,271C 274.089,270.983 269.923,270.15 266,268.5C 264.56,269.148 263.06,269.481 261.5,269.5C 264.53,267.597 267.863,266.263 271.5,265.5C 270.909,266.151 270.243,266.818 269.5,267.5C 306.576,269.177 343.576,268.177 380.5,264.5 Z"/></g>
<g><path style="opacity:1" fill="#18191c" d="M 193.5,265.5 C 188.511,269.331 183.178,272.664 177.5,275.5C 182.152,271.169 187.486,267.835 193.5,265.5 Z"/></g>
<g><path style="opacity:1" fill="#4e4945" d="M 282.5,274.5 C 285.167,276.5 287.5,278.833 289.5,281.5C 289.062,281.435 288.728,281.601 288.5,282C 293.425,287.432 298.758,292.265 304.5,296.5C 308.119,300.785 312.119,304.785 316.5,308.5C 319.129,312.463 322.129,316.129 325.5,319.5C 326.75,321.932 328.25,324.266 330,326.5C 330.77,327.598 331.603,327.598 332.5,326.5C 337.594,336.356 342.428,346.356 347,356.5C 351.045,371.894 346.212,383.394 332.5,391C 333.71,392.039 334.71,393.206 335.5,394.5C 327.825,389.823 321.492,383.823 316.5,376.5C 314.518,372.854 311.851,369.854 308.5,367.5C 305.427,365.431 303.094,362.764 301.5,359.5C 300.952,357.606 299.952,355.94 298.5,354.5C 299.233,353.913 300.233,353.913 301.5,354.5C 306.593,358.088 311.26,362.255 315.5,367C 318.979,370.082 322.979,371.415 327.5,371C 329.187,369.087 329.687,366.92 329,364.5C 319.988,342.14 306.322,323.14 288,307.5C 287.51,308.793 287.343,310.127 287.5,311.5C 286.076,307.051 283.742,303.051 280.5,299.5C 276.895,294.226 272.562,289.559 267.5,285.5C 265.234,281.564 262.234,278.231 258.5,275.5C 258.489,273.983 257.823,272.816 256.5,272C 258.491,271.626 260.158,270.793 261.5,269.5C 263.06,269.481 264.56,269.148 266,268.5C 269.923,270.15 274.089,270.983 278.5,271C 279.705,272.376 281.038,273.542 282.5,274.5 Z"/></g>
<g><path style="opacity:1" fill="#444d55" d="M 355.5,284.5 C 365.154,291.33 375.154,297.663 385.5,303.5C 387.749,304.08 389.415,305.413 390.5,307.5C 394.534,311.536 398.868,315.202 403.5,318.5C 406.129,321.631 408.962,324.631 412,327.5C 412.495,329.473 412.662,331.473 412.5,333.5C 411.517,339.206 408.183,343.039 402.5,345C 397.254,346.506 391.921,346.839 386.5,346C 368.258,341.536 350.925,335.036 334.5,326.5C 331.238,324.58 328.238,322.246 325.5,319.5C 323.574,314.912 320.574,311.245 316.5,308.5C 313.5,303.5 309.5,299.5 304.5,296.5C 301.037,292.536 297.37,288.702 293.5,285C 294.094,284.536 294.761,284.369 295.5,284.5C 322.201,300.517 350.201,313.85 379.5,324.5C 383.425,326.988 387.758,328.155 392.5,328C 391.434,325.988 390.1,325.488 388.5,326.5C 380.09,319.115 370.756,312.948 360.5,308C 336.561,296.196 312.561,284.696 288.5,273.5C 286.123,272.113 283.457,271.279 280.5,271C 281.167,270.667 281.833,270.333 282.5,270C 296.5,269.333 310.5,269.333 324.5,270C 334.855,274.845 345.188,279.678 355.5,284.5 Z"/></g>
<g><path style="opacity:1" fill="#1b1714" d="M 133.5,266.5 C 123.618,269.488 113.618,272.488 103.5,275.5C 103.918,274.778 104.584,274.278 105.5,274C 102.174,273.828 98.8411,273.995 95.5,274.5C 108.133,272.179 120.799,269.513 133.5,266.5 Z"/></g>
<g><path style="opacity:1" fill="#f6f6f6" d="M 288.5,273.5 C 312.561,284.696 336.561,296.196 360.5,308C 370.756,312.948 380.09,319.115 388.5,326.5C 385.5,325.833 382.5,325.167 379.5,324.5C 350.201,313.85 322.201,300.517 295.5,284.5C 293.819,282.992 291.819,281.992 289.5,281.5C 287.5,278.833 285.167,276.5 282.5,274.5C 282.369,273.624 282.702,272.957 283.5,272.5C 285.071,273.309 286.738,273.643 288.5,273.5 Z"/></g>
<g><path style="opacity:0.68" fill="#fbfbfb" d="M 103.5,275.5 C 91.4463,277.768 82.2796,284.101 76,294.5C 74.0414,305.25 77.8747,312.917 87.5,317.5C 92.1172,319.841 97.1172,321.341 102.5,322C 99.6898,322.782 97.0232,323.616 94.5,324.5C 85.4197,324.796 76.4197,325.463 67.5,326.5C 59.4664,326.2 51.4664,325.533 43.5,324.5C 31.6614,320.489 27.4948,312.489 31,300.5C 34.2508,296.578 38.0841,293.412 42.5,291C 53.7784,285.19 65.4451,280.69 77.5,277.5C 83.7252,277.1 89.7252,276.1 95.5,274.5C 98.8411,273.995 102.174,273.828 105.5,274C 104.584,274.278 103.918,274.778 103.5,275.5 Z M 62.5,294.5 C 54.5984,297.563 47.5984,302.063 41.5,308C 43.5759,310.584 46.2426,312.251 49.5,313C 55.1087,314.384 60.7753,314.717 66.5,314C 65.8333,312.667 65.1667,311.333 64.5,310C 64.1072,305.822 64.1072,301.489 64.5,297C 64.3613,295.699 63.6946,294.866 62.5,294.5 Z"/></g>
<g><path style="opacity:1" fill="#2b2521" d="M 95.5,274.5 C 89.7252,276.1 83.7252,277.1 77.5,277.5C 83.2087,275.495 89.2087,274.495 95.5,274.5 Z"/></g>
<g><path style="opacity:1" fill="#151617" d="M 167.5,278.5 C 169.607,277.532 171.941,277.198 174.5,277.5C 173.738,279.262 172.404,280.262 170.5,280.5C 170.611,279.883 170.944,279.383 171.5,279C 170.207,278.51 168.873,278.343 167.5,278.5 Z"/></g>
<g><path style="opacity:1" fill="#765f4b" d="M 258.5,275.5 C 260.766,279.436 263.766,282.769 267.5,285.5C 271.105,290.774 275.438,295.441 280.5,299.5C 283.742,303.051 286.076,307.051 287.5,311.5C 290.404,319.81 292.071,328.477 292.5,337.5C 292.662,339.527 292.495,341.527 292,343.5C 285.881,337.226 280.381,330.56 275.5,323.5C 269.848,313.193 265.182,302.526 261.5,291.5C 259.316,285.112 256.65,278.946 253.5,273C 255.435,273.058 257.102,273.891 258.5,275.5 Z"/></g>
<g><path style="opacity:1" fill="#f7f7f7" d="M 167.5,278.5 C 168.873,278.343 170.207,278.51 171.5,279C 170.944,279.383 170.611,279.883 170.5,280.5C 162.926,285.073 155.926,290.406 149.5,296.5C 146.99,296.927 144.657,297.593 142.5,298.5C 136.593,298.863 130.927,299.863 125.5,301.5C 119.468,301.302 113.468,301.635 107.5,302.5C 104.174,301.953 100.84,301.453 97.5,301C 96.1667,300.333 96.1667,299.667 97.5,299C 101.925,296.787 106.259,294.621 110.5,292.5C 129.41,287.022 148.41,282.355 167.5,278.5 Z"/></g>
<g><path style="opacity:1" fill="#141210" d="M 258.5,275.5 C 262.234,278.231 265.234,281.564 267.5,285.5C 263.766,282.769 260.766,279.436 258.5,275.5 Z"/></g>
<g><path style="opacity:1" fill="#dfdfdf" d="M 201.5,282.5 C 202.653,283.313 202.653,284.313 201.5,285.5C 199.696,286.768 197.696,287.435 195.5,287.5C 197.5,285.833 199.5,284.167 201.5,282.5 Z"/></g>
<g><path style="opacity:1" fill="#121212" d="M 289.5,281.5 C 291.819,281.992 293.819,282.992 295.5,284.5C 294.761,284.369 294.094,284.536 293.5,285C 297.37,288.702 301.037,292.536 304.5,296.5C 298.758,292.265 293.425,287.432 288.5,282C 288.728,281.601 289.062,281.435 289.5,281.5 Z"/></g>
<g><path style="opacity:1" fill="#141515" d="M 195.5,288.5 C 191.676,289.615 188.01,291.281 184.5,293.5C 187.171,290.839 190.171,288.506 193.5,286.5C 194.182,287.243 194.849,287.909 195.5,288.5 Z"/></g>
<g><path style="opacity:1" fill="#79706a" d="M 195.5,288.5 C 196.675,288.281 197.675,288.614 198.5,289.5C 194.635,295.232 191.302,301.232 188.5,307.5C 186.426,308.514 184.426,309.514 182.5,310.5C 175.292,311.175 168.125,312.175 161,313.5C 160.235,313.43 159.735,313.097 159.5,312.5C 162.089,311.581 164.089,309.914 165.5,307.5C 167.404,307.262 168.738,306.262 169.5,304.5C 173.051,302.889 176.051,300.556 178.5,297.5C 180.853,296.66 182.853,295.326 184.5,293.5C 188.01,291.281 191.676,289.615 195.5,288.5 Z"/></g>
<g><path style="opacity:1" fill="#171412" d="M 267.5,285.5 C 272.562,289.559 276.895,294.226 280.5,299.5C 275.438,295.441 271.105,290.774 267.5,285.5 Z"/></g>
<g><path style="opacity:1" fill="#556b83" d="M 230.5,280.5 C 228.928,283.215 227.928,286.215 227.5,289.5C 221.793,302.275 216.459,315.275 211.5,328.5C 208.542,332.691 206.542,337.358 205.5,342.5C 203.043,345.751 201.376,349.418 200.5,353.5C 197.992,357.182 195.992,361.182 194.5,365.5C 193.662,365.842 193.328,366.508 193.5,367.5C 187.674,377.142 181.341,386.476 174.5,395.5C 172.069,394.393 171.069,392.393 171.5,389.5C 172.892,381.158 175.392,373.158 179,365.5C 183.601,356.519 188.101,347.519 192.5,338.5C 197.235,333.368 201.235,327.701 204.5,321.5C 205.758,319.313 206.758,316.98 207.5,314.5C 208.167,314.167 208.833,313.833 209.5,313.5C 213.586,308.335 216.92,302.668 219.5,296.5C 223.48,290.551 226.98,284.217 230,277.5C 230.483,278.448 230.649,279.448 230.5,280.5 Z"/></g>
<g><path style="opacity:1" fill="#cdcdcd" d="M 261.5,291.5 C 261.815,293.226 261.981,294.893 262,296.5C 260.307,294.424 259.64,292.091 260,289.5C 260.278,290.416 260.778,291.082 261.5,291.5 Z"/></g>
<g><path style="opacity:1" fill="#121213" d="M 227.5,289.5 C 223.322,303.048 217.989,316.048 211.5,328.5C 216.459,315.275 221.793,302.275 227.5,289.5 Z"/></g>
<g><path style="opacity:1" fill="#111417" d="M 355.5,284.5 C 366.184,289.837 376.184,296.17 385.5,303.5C 375.154,297.663 365.154,291.33 355.5,284.5 Z"/></g>
<g><path style="opacity:1" fill="#353332" d="M 110.5,292.5 C 106.259,294.621 101.925,296.787 97.5,299C 96.1667,299.667 96.1667,300.333 97.5,301C 100.84,301.453 104.174,301.953 107.5,302.5C 113.468,301.635 119.468,301.302 125.5,301.5C 119.177,302.421 112.677,303.087 106,303.5C 101.813,303.662 97.9795,302.662 94.5,300.5C 98.9948,296.253 104.328,293.586 110.5,292.5 Z"/></g>
<g><path style="opacity:1" fill="#171717" d="M 149.5,296.5 C 132.851,314.256 115.851,331.756 98.5,349C 97.9056,349.464 97.2389,349.631 96.5,349.5C 98.2941,347.203 100.294,345.037 102.5,343C 101.207,342.51 99.8734,342.343 98.5,342.5C 100.663,341.531 102.996,340.698 105.5,340C 111.5,334 117.5,328 123.5,322C 118.167,321.333 112.833,321.333 107.5,322C 103.297,323.569 98.9639,324.402 94.5,324.5C 97.0232,323.616 99.6898,322.782 102.5,322C 97.1172,321.341 92.1172,319.841 87.5,317.5C 100.047,320.752 112.714,321.252 125.5,319C 132.167,312.333 138.833,305.667 145.5,299C 144.552,298.517 143.552,298.351 142.5,298.5C 144.657,297.593 146.99,296.927 149.5,296.5 Z"/></g>
<g><path style="opacity:1" fill="#181819" d="M 178.5,297.5 C 176.051,300.556 173.051,302.889 169.5,304.5C 171.949,301.444 174.949,299.111 178.5,297.5 Z"/></g>
<g><path style="opacity:1" fill="#191614" d="M 219.5,296.5 C 216.92,302.668 213.586,308.335 209.5,313.5C 209.5,312.167 208.833,311.5 207.5,311.5C 209.471,306.895 211.971,302.562 215,298.5C 215.333,299.167 215.667,299.833 216,300.5C 216.949,298.907 218.115,297.574 219.5,296.5 Z"/></g>
<g><path style="opacity:1" fill="#131415" d="M 304.5,296.5 C 309.5,299.5 313.5,303.5 316.5,308.5C 312.119,304.785 308.119,300.785 304.5,296.5 Z"/></g>
<g><path style="opacity:1" fill="#755f4b" d="M 250.5,365.5 C 251.582,387.211 255.415,408.545 262,429.5C 263.484,433.017 265.984,434.851 269.5,435C 272.446,431.931 274.446,428.431 275.5,424.5C 276.887,422.123 277.721,419.457 278,416.5C 278.579,398.3 278.079,380.133 276.5,362C 276.528,360.93 276.861,360.097 277.5,359.5C 278.08,361.749 279.413,363.415 281.5,364.5C 283.709,369.381 287.043,373.381 291.5,376.5C 292.786,379.117 294.453,381.45 296.5,383.5C 296.5,384.167 296.5,384.833 296.5,385.5C 295.785,397.515 295.118,409.681 294.5,422C 294.528,423.07 294.861,423.903 295.5,424.5C 293.566,434.823 288.899,443.656 281.5,451C 268.467,458.45 257.301,456.283 248,444.5C 243.486,436.292 240.153,427.626 238,418.5C 234.853,402.619 232.686,386.619 231.5,370.5C 232.213,355.308 232.879,339.974 233.5,324.5C 236.793,319.301 239.127,313.635 240.5,307.5C 241.558,306.4 242.392,305.066 243,303.5C 244.726,307.953 246.726,312.286 249,316.5C 249.169,333.005 249.669,349.338 250.5,365.5 Z M 263.5,365.5 C 264.494,366.999 264.494,368.666 263.5,370.5C 262.28,368.95 262.28,367.284 263.5,365.5 Z"/></g>
<g><path style="opacity:1" fill="#3e3026" d="M 13.5,293.5 C 11.7573,300.702 11.0906,308.035 11.5,315.5C 8.53538,307.874 9.20204,300.541 13.5,293.5 Z"/></g>
<g><path style="opacity:0.812" fill="#fafafa" d="M 301.5,354.5 C 299.533,351.532 297.2,348.865 294.5,346.5C 293.833,343.358 293.166,340.358 292.5,337.5C 292.071,328.477 290.404,319.81 287.5,311.5C 287.343,310.127 287.51,308.793 288,307.5C 306.322,323.14 319.988,342.14 329,364.5C 329.687,366.92 329.187,369.087 327.5,371C 322.979,371.415 318.979,370.082 315.5,367C 311.26,362.255 306.593,358.088 301.5,354.5 Z"/></g>
<g><path style="opacity:1" fill="#141110" d="M 188.5,307.5 C 186.336,312.5 183.669,317.167 180.5,321.5C 181.628,317.91 183.295,314.577 185.5,311.5C 184.675,310.614 183.675,310.281 182.5,310.5C 184.426,309.514 186.426,308.514 188.5,307.5 Z"/></g>
<g><path style="opacity:1" fill="#1f1e1d" d="M 165.5,307.5 C 164.089,309.914 162.089,311.581 159.5,312.5C 160.911,310.086 162.911,308.419 165.5,307.5 Z"/></g>
<g><path style="opacity:1" fill="#66482f" d="M 182.5,310.5 C 183.675,310.281 184.675,310.614 185.5,311.5C 183.295,314.577 181.628,317.91 180.5,321.5C 179.167,323.5 177.5,325.167 175.5,326.5C 172.497,328.262 169.163,329.428 165.5,330C 157.818,331.502 150.151,333.002 142.5,334.5C 142.082,333.778 141.416,333.278 140.5,333C 143.669,328.999 147.003,325.166 150.5,321.5C 153.603,319.577 156.603,317.41 159.5,315C 167.444,314.225 175.111,312.725 182.5,310.5 Z"/></g>
<g><path style="opacity:1" fill="#261e17" d="M 182.5,310.5 C 175.111,312.725 167.444,314.225 159.5,315C 156.603,317.41 153.603,319.577 150.5,321.5C 153.167,318.167 156.167,315.167 159.5,312.5C 159.735,313.097 160.235,313.43 161,313.5C 168.125,312.175 175.292,311.175 182.5,310.5 Z"/></g>
<g><path style="opacity:1" fill="#e7e7e7" d="M 207.5,311.5 C 208.833,311.5 209.5,312.167 209.5,313.5C 208.833,313.833 208.167,314.167 207.5,314.5C 207.5,313.5 207.5,312.5 207.5,311.5 Z"/></g>
<g><path style="opacity:1" fill="#0d1013" d="M 390.5,307.5 C 395.719,310.046 400.052,313.713 403.5,318.5C 398.868,315.202 394.534,311.536 390.5,307.5 Z"/></g>
<g><path style="opacity:1" fill="#131313" d="M 316.5,308.5 C 320.574,311.245 323.574,314.912 325.5,319.5C 322.129,316.129 319.129,312.463 316.5,308.5 Z"/></g>
<g><path style="opacity:1" fill="#d1d2d2" d="M 207.5,314.5 C 206.758,316.98 205.758,319.313 204.5,321.5C 203.075,323.031 202.409,322.698 202.5,320.5C 204.167,318.5 205.833,316.5 207.5,314.5 Z"/></g>
<g><path style="opacity:0.652" fill="#fcfcfc" d="M 251.5,319.5 C 257.932,332.916 265.932,345.25 275.5,356.5C 275.945,371.84 276.612,387.174 277.5,402.5C 277.6,409.92 276.933,417.253 275.5,424.5C 274.446,428.431 272.446,431.931 269.5,435C 265.984,434.851 263.484,433.017 262,429.5C 255.415,408.545 251.582,387.211 250.5,365.5C 250.17,349.991 250.504,334.658 251.5,319.5 Z M 263.5,365.5 C 264.494,366.999 264.494,368.666 263.5,370.5C 262.28,368.95 262.28,367.284 263.5,365.5 Z"/></g>
<g><path style="opacity:1" fill="#151310" d="M 240.5,307.5 C 239.127,313.635 236.793,319.301 233.5,324.5C 235.264,318.527 237.597,312.86 240.5,307.5 Z"/></g>
<g><path style="opacity:1" fill="#121313" d="M 325.5,319.5 C 328.238,322.246 331.238,324.58 334.5,326.5C 333.833,326.5 333.167,326.5 332.5,326.5C 331.603,327.598 330.77,327.598 330,326.5C 328.25,324.266 326.75,321.932 325.5,319.5 Z"/></g>
<g><path style="opacity:1" fill="#15171a" d="M 403.5,318.5 C 409.55,322.217 414.217,327.217 417.5,333.5C 416.206,332.71 415.039,331.71 414,330.5C 413.768,331.737 413.268,332.737 412.5,333.5C 412.662,331.473 412.495,329.473 412,327.5C 408.962,324.631 406.129,321.631 403.5,318.5 Z"/></g>
<g><path style="opacity:1" fill="#261f1b" d="M 43.5,324.5 C 51.4664,325.533 59.4664,326.2 67.5,326.5C 59.3704,327.819 51.3704,327.152 43.5,324.5 Z"/></g>
<g><path style="opacity:1" fill="#171819" d="M 379.5,324.5 C 382.5,325.167 385.5,325.833 388.5,326.5C 390.1,325.488 391.434,325.988 392.5,328C 387.758,328.155 383.425,326.988 379.5,324.5 Z"/></g>
<g><path style="opacity:0.584" fill="#fcfcfc" d="M 175.5,326.5 C 176.043,326.56 176.376,326.893 176.5,327.5C 168.866,341.101 162.033,355.101 156,369.5C 153.437,377.313 151.771,385.313 151,393.5C 149.519,394.471 148.685,395.804 148.5,397.5C 131.915,416.253 113.581,433.086 93.5,448C 89.0229,450.824 84.1896,452.657 79,453.5C 72.4733,453.125 67.64,450.125 64.5,444.5C 63.1667,438.5 63.1667,432.5 64.5,426.5C 66.8162,419.53 69.9829,412.863 74,406.5C 88.1642,386.33 104.498,367.997 123,351.5C 128.008,345.992 132.841,340.325 137.5,334.5C 139.167,334.5 140.833,334.5 142.5,334.5C 150.151,333.002 157.818,331.502 165.5,330C 169.163,329.428 172.497,328.262 175.5,326.5 Z M 150.5,344.5 C 149.469,345.249 148.302,345.915 147,346.5C 146.667,346.167 146.333,345.833 146,345.5C 139.469,352.365 132.636,358.865 125.5,365C 109.83,380.662 95.663,397.495 83,415.5C 79.5123,421.642 77.0123,428.142 75.5,435C 75.2341,437.97 76.4008,440.137 79,441.5C 81.8135,440.034 84.6469,438.534 87.5,437C 107.754,422.747 125.421,405.747 140.5,386C 140.167,385.667 139.833,385.333 139.5,385C 140.626,381.7 141.626,378.366 142.5,375C 142.167,374.667 141.833,374.333 141.5,374C 144.879,364.919 148.546,355.586 152.5,346C 152.164,344.97 151.497,344.47 150.5,344.5 Z"/></g>
<g><path style="opacity:0.597" fill="#fcfcfc" d="M 332.5,326.5 C 333.167,326.5 333.833,326.5 334.5,326.5C 350.925,335.036 368.258,341.536 386.5,346C 391.921,346.839 397.254,346.506 402.5,345C 408.183,343.039 411.517,339.206 412.5,333.5C 413.268,332.737 413.768,331.737 414,330.5C 415.039,331.71 416.206,332.71 417.5,333.5C 423.988,342.461 429.488,352.128 434,362.5C 439.253,373.607 441.253,385.274 440,397.5C 435.713,420.141 422.213,431.308 399.5,431C 386.145,426.991 373.478,421.325 361.5,414C 352.595,407.725 343.928,401.225 335.5,394.5C 334.71,393.206 333.71,392.039 332.5,391C 346.212,383.394 351.045,371.894 347,356.5C 342.428,346.356 337.594,336.356 332.5,326.5 Z M 357.5,350.5 C 363.477,364.809 361.81,378.309 352.5,391C 352.759,392.261 353.426,393.261 354.5,394C 368.681,404.424 384.015,412.758 400.5,419C 405.94,420.174 410.94,419.174 415.5,416C 425.732,407.075 430.065,396.241 428.5,383.5C 425.128,372.923 420.795,362.756 415.5,353C 411.795,354.01 408.128,355.343 404.5,357C 396.241,359.134 388.074,358.967 380,356.5C 379.667,356.833 379.333,357.167 379,357.5C 372.192,354.287 365.026,351.954 357.5,350.5 Z"/></g>
<g><path style="opacity:1" fill="#171718" d="M 202.5,320.5 C 202.409,322.698 203.075,323.031 204.5,321.5C 201.235,327.701 197.235,333.368 192.5,338.5C 195.33,332.17 198.663,326.17 202.5,320.5 Z"/></g>
<g><path style="opacity:1" fill="#181514" d="M 150.5,321.5 C 147.003,325.166 143.669,328.999 140.5,333C 141.416,333.278 142.082,333.778 142.5,334.5C 140.833,334.5 139.167,334.5 137.5,334.5C 141.277,330.459 144.943,326.292 148.5,322C 149.094,321.536 149.761,321.369 150.5,321.5 Z"/></g>
<g><path style="opacity:1" fill="#151617" d="M 211.5,328.5 C 210.458,333.642 208.458,338.309 205.5,342.5C 206.542,337.358 208.542,332.691 211.5,328.5 Z"/></g>
<g><path style="opacity:1" fill="#221c18" d="M 98.5,342.5 C 92.383,343.879 86.0497,344.546 79.5,344.5C 85.617,343.121 91.9503,342.454 98.5,342.5 Z"/></g>
<g><path style="opacity:1" fill="#1a1919" d="M 275.5,323.5 C 280.381,330.56 285.881,337.226 292,343.5C 292.495,341.527 292.662,339.527 292.5,337.5C 293.166,340.358 293.833,343.358 294.5,346.5C 297.2,348.865 299.533,351.532 301.5,354.5C 300.233,353.913 299.233,353.913 298.5,354.5C 299.952,355.94 300.952,357.606 301.5,359.5C 291.366,348.569 282.7,336.569 275.5,323.5 Z"/></g>
<g><path style="opacity:1" fill="#1b1816" d="M 44.5,343.5 C 55.6649,343.957 66.6649,344.623 77.5,345.5C 68.8269,345.666 60.1603,345.5 51.5,345C 48.9644,344.814 46.631,344.314 44.5,343.5 Z"/></g>
<g><path style="opacity:1" fill="#121111" d="M 200.5,353.5 C 199.54,358.086 197.54,362.086 194.5,365.5C 195.992,361.182 197.992,357.182 200.5,353.5 Z"/></g>
<g><path style="opacity:1" fill="#141212" d="M 277.5,359.5 C 279.587,360.585 280.92,362.251 281.5,364.5C 279.413,363.415 278.08,361.749 277.5,359.5 Z"/></g>
<g><path style="opacity:1" fill="#141517" d="M 281.5,364.5 C 285.203,368.202 288.537,372.202 291.5,376.5C 287.043,373.381 283.709,369.381 281.5,364.5 Z"/></g>
<g><path style="opacity:1" fill="#131315" d="M 308.5,367.5 C 311.851,369.854 314.518,372.854 316.5,376.5C 313.119,374.12 310.453,371.12 308.5,367.5 Z"/></g>
<g><path style="opacity:1" fill="#131415" d="M 192.5,338.5 C 188.101,347.519 183.601,356.519 179,365.5C 175.392,373.158 172.892,381.158 171.5,389.5C 171.069,392.393 172.069,394.393 174.5,395.5C 173.458,396.791 172.292,396.791 171,395.5C 170.228,390.096 170.561,384.762 172,379.5C 177.298,364.905 184.131,351.238 192.5,338.5 Z"/></g>
<g><path style="opacity:1" fill="#293038" d="M 458.5,372.5 C 460.182,381.835 460.515,391.168 459.5,400.5C 458.679,392.833 458.013,385 457.5,377C 457.508,375.293 457.842,373.793 458.5,372.5 Z"/></g>
<g><path style="opacity:1" fill="#101112" d="M 193.5,367.5 C 190.457,375.252 186.624,382.586 182,389.5C 179.894,392.118 177.394,394.118 174.5,395.5C 181.341,386.476 187.674,377.142 193.5,367.5 Z"/></g>
<g><path style="opacity:1" fill="#1e1d1e" d="M 291.5,376.5 C 295.234,379.231 298.234,382.564 300.5,386.5C 299.167,385.5 297.833,384.5 296.5,383.5C 294.453,381.45 292.786,379.117 291.5,376.5 Z"/></g>
<g><path style="opacity:1" fill="#241f1c" d="M 275.5,356.5 C 276.906,356.973 277.573,357.973 277.5,359.5C 276.861,360.097 276.528,360.93 276.5,362C 278.079,380.133 278.579,398.3 278,416.5C 277.721,419.457 276.887,422.123 275.5,424.5C 276.933,417.253 277.6,409.92 277.5,402.5C 276.612,387.174 275.945,371.84 275.5,356.5 Z"/></g>
<g><path style="opacity:1" fill="#2b2724" d="M 296.5,385.5 C 296.306,392.361 296.639,399.194 297.5,406C 296.803,412.173 296.136,418.34 295.5,424.5C 294.861,423.903 294.528,423.07 294.5,422C 295.118,409.681 295.785,397.515 296.5,385.5 Z"/></g>
<g><path style="opacity:1" fill="#212224" d="M 64.5,426.5 C 63.1667,432.5 63.1667,438.5 64.5,444.5C 63.0092,441.814 62.3425,438.814 62.5,435.5C 62.3425,432.186 63.0092,429.186 64.5,426.5 Z"/></g>
</svg>
