<?xml version="1.0" encoding="UTF-8"?>
<!DOCTYPE svg PUBLIC "-//W3C//DTD SVG 1.1//EN" "http://www.w3.org/Graphics/SVG/1.1/DTD/svg11.dtd">
<svg xmlns="http://www.w3.org/2000/svg" version="1.1" width="64px" height="64px" style="shape-rendering:geometricPrecision; text-rendering:geometricPrecision; image-rendering:optimizeQuality; fill-rule:evenodd; clip-rule:evenodd" xmlns:xlink="http://www.w3.org/1999/xlink">
<g><path style="opacity:0.321" fill="#4b8b9a" d="M 58.5,12.5 C 58.1667,12.5 57.8333,12.5 57.5,12.5C 57.1667,12.5 56.8333,12.5 56.5,12.5C 56.5,10.8333 56.5,9.16667 56.5,7.5C 46.1667,7.5 35.8333,7.5 25.5,7.5C 19.5,7.5 13.5,7.5 7.5,7.5C 7.5,10.8333 7.5,14.1667 7.5,17.5C 7.5,22.5 7.5,27.5 7.5,32.5C 7.5,34.1667 7.5,35.8333 7.5,37.5C 6.83333,37.5 6.16667,37.5 5.5,37.5C 5.33352,27.4944 5.50019,17.4944 6,7.5C 6.5,7 7,6.5 7.5,6C 23.8333,5.33333 40.1667,5.33333 56.5,6C 58.25,7.75417 58.9167,9.92083 58.5,12.5 Z"/></g>
<g><path style="opacity:1" fill="#dde6ec" d="M 25.5,7.5 C 25.6085,9.5138 24.9418,11.1805 23.5,12.5C 21.6565,14.2789 20.9898,16.6122 21.5,19.5C 20.1667,19.5 18.8333,19.5 17.5,19.5C 16.4923,17.6614 14.9923,16.3281 13,15.5C 11.5557,17.1554 9.72241,17.822 7.5,17.5C 7.5,14.1667 7.5,10.8333 7.5,7.5C 13.5,7.5 19.5,7.5 25.5,7.5 Z"/></g>
<g><path style="opacity:1" fill="#a8c3cf" d="M 25.5,7.5 C 35.8333,7.5 46.1667,7.5 56.5,7.5C 56.5,9.16667 56.5,10.8333 56.5,12.5C 53.5,12.5 50.5,12.5 47.5,12.5C 46.5,12.5 45.5,12.5 44.5,12.5C 41.5,12.5 38.5,12.5 35.5,12.5C 34.8333,12.5 34.1667,12.5 33.5,12.5C 32.1667,12.5 30.8333,12.5 29.5,12.5C 28.8333,12.5 28.1667,12.5 27.5,12.5C 26.1667,12.5 24.8333,12.5 23.5,12.5C 24.9418,11.1805 25.6085,9.5138 25.5,7.5 Z"/></g>
<g><path style="opacity:1" fill="#ec6e4d" d="M 23.5,12.5 C 23.5,14.8333 23.5,17.1667 23.5,19.5C 22.8333,19.5 22.1667,19.5 21.5,19.5C 20.9898,16.6122 21.6565,14.2789 23.5,12.5 Z"/></g>
<g><path style="opacity:1" fill="#f8f1f0" d="M 23.5,12.5 C 24.8333,12.5 26.1667,12.5 27.5,12.5C 27.5,14.8333 27.5,17.1667 27.5,19.5C 26.1667,19.5 24.8333,19.5 23.5,19.5C 23.5,17.1667 23.5,14.8333 23.5,12.5 Z"/></g>
<g><path style="opacity:1" fill="#f8c83e" d="M 27.5,12.5 C 28.1667,12.5 28.8333,12.5 29.5,12.5C 29.5,14.8333 29.5,17.1667 29.5,19.5C 28.8333,19.5 28.1667,19.5 27.5,19.5C 27.5,17.1667 27.5,14.8333 27.5,12.5 Z"/></g>
<g><path style="opacity:1" fill="#edf1dd" d="M 29.5,12.5 C 30.8333,12.5 32.1667,12.5 33.5,12.5C 33.5,14.8333 33.5,17.1667 33.5,19.5C 32.1667,19.5 30.8333,19.5 29.5,19.5C 29.5,17.1667 29.5,14.8333 29.5,12.5 Z"/></g>
<g><path style="opacity:1" fill="#b0d583" d="M 33.5,12.5 C 34.1667,12.5 34.8333,12.5 35.5,12.5C 35.5,14.8333 35.5,17.1667 35.5,19.5C 34.8333,19.5 34.1667,19.5 33.5,19.5C 33.5,17.1667 33.5,14.8333 33.5,12.5 Z"/></g>
<g><path style="opacity:1" fill="#f7f8fa" d="M 35.5,12.5 C 38.5,12.5 41.5,12.5 44.5,12.5C 44.5,14.8333 44.5,17.1667 44.5,19.5C 41.5,19.5 38.5,19.5 35.5,19.5C 35.5,17.1667 35.5,14.8333 35.5,12.5 Z"/></g>
<g><path style="opacity:1" fill="#f8cd5a" d="M 44.5,12.5 C 45.5,12.5 46.5,12.5 47.5,12.5C 47.5,14.8333 47.5,17.1667 47.5,19.5C 46.5,19.5 45.5,19.5 44.5,19.5C 44.5,17.1667 44.5,14.8333 44.5,12.5 Z"/></g>
<g><path style="opacity:1" fill="#f3f6f7" d="M 47.5,12.5 C 50.5,12.5 53.5,12.5 56.5,12.5C 56.8333,12.5 57.1667,12.5 57.5,12.5C 57.5,14.8333 57.5,17.1667 57.5,19.5C 54.1667,19.5 50.8333,19.5 47.5,19.5C 47.5,17.1667 47.5,14.8333 47.5,12.5 Z"/></g>
<g><path style="opacity:1" fill="#819cad" d="M 16.5,20.5 C 16.5,19.8333 16.8333,19.5 17.5,19.5C 18.8333,19.5 20.1667,19.5 21.5,19.5C 22.1667,19.5 22.8333,19.5 23.5,19.5C 24.8333,19.5 26.1667,19.5 27.5,19.5C 28.1667,19.5 28.8333,19.5 29.5,19.5C 30.8333,19.5 32.1667,19.5 33.5,19.5C 34.1667,19.5 34.8333,19.5 35.5,19.5C 38.5,19.5 41.5,19.5 44.5,19.5C 45.5,19.5 46.5,19.5 47.5,19.5C 50.8333,19.5 54.1667,19.5 57.5,19.5C 57.5,20.5 57.5,21.5 57.5,22.5C 55.1667,22.5 52.8333,22.5 50.5,22.5C 49.8333,22.5 49.1667,22.5 48.5,22.5C 45.8333,22.5 43.1667,22.5 40.5,22.5C 39.8333,22.5 39.1667,22.5 38.5,22.5C 37.8333,22.5 37.1667,22.5 36.5,22.5C 36.3893,21.8826 36.056,21.3826 35.5,21C 29.1754,20.5005 22.8421,20.3338 16.5,20.5 Z"/></g>
<g><path style="opacity:1" fill="#9fbecd" d="M 16.5,20.5 C 22.8421,20.3338 29.1754,20.5005 35.5,21C 36.056,21.3826 36.3893,21.8826 36.5,22.5C 32.7779,21.6799 30.4446,23.0132 29.5,26.5C 29.7031,28.0443 30.3698,29.3777 31.5,30.5C 28.1455,31.5153 24.8122,32.5153 21.5,33.5C 21.7845,31.5853 21.4511,29.9187 20.5,28.5C 19.7194,26.3369 20.5528,26.0036 23,27.5C 25.3079,26.3589 27.1413,24.6922 28.5,22.5C 24.3525,21.833 20.3525,21.1663 16.5,20.5 Z"/></g>
<g><path style="opacity:1" fill="#e3e4e5" d="M 36.5,22.5 C 36.5,24.5 36.5,26.5 36.5,28.5C 35.1667,28.5 33.8333,28.5 32.5,28.5C 31.5,27.8333 30.5,27.1667 29.5,26.5C 30.4446,23.0132 32.7779,21.6799 36.5,22.5 Z"/></g>
<g><path style="opacity:1" fill="#ef5b34" d="M 36.5,22.5 C 37.1667,22.5 37.8333,22.5 38.5,22.5C 38.5,24.5 38.5,26.5 38.5,28.5C 37.8333,28.5 37.1667,28.5 36.5,28.5C 36.5,26.5 36.5,24.5 36.5,22.5 Z"/></g>
<g><path style="opacity:1" fill="#fdb80f" d="M 38.5,22.5 C 39.1667,22.5 39.8333,22.5 40.5,22.5C 40.5,24.5 40.5,26.5 40.5,28.5C 39.8333,28.5 39.1667,28.5 38.5,28.5C 38.5,26.5 38.5,24.5 38.5,22.5 Z"/></g>
<g><path style="opacity:1" fill="#e5e4dd" d="M 40.5,22.5 C 43.1667,22.5 45.8333,22.5 48.5,22.5C 48.5,24.5 48.5,26.5 48.5,28.5C 45.8333,28.5 43.1667,28.5 40.5,28.5C 40.5,26.5 40.5,24.5 40.5,22.5 Z"/></g>
<g><path style="opacity:1" fill="#9acb5b" d="M 48.5,22.5 C 49.1667,22.5 49.8333,22.5 50.5,22.5C 50.5,24.5 50.5,26.5 50.5,28.5C 49.8333,28.5 49.1667,28.5 48.5,28.5C 48.5,26.5 48.5,24.5 48.5,22.5 Z"/></g>
<g><path style="opacity:1" fill="#e1e3e4" d="M 50.5,22.5 C 52.8333,22.5 55.1667,22.5 57.5,22.5C 57.5,24.5 57.5,26.5 57.5,28.5C 57.1667,28.5 56.8333,28.5 56.5,28.5C 54.5,28.5 52.5,28.5 50.5,28.5C 50.5,26.5 50.5,24.5 50.5,22.5 Z"/></g>
<g><path style="opacity:1" fill="#b9cfdb" d="M 17.5,19.5 C 16.8333,19.5 16.5,19.8333 16.5,20.5C 20.3525,21.1663 24.3525,21.833 28.5,22.5C 27.1413,24.6922 25.3079,26.3589 23,27.5C 20.5528,26.0036 19.7194,26.3369 20.5,28.5C 18.6398,32.3509 16.8065,32.3509 15,28.5C 13.9563,29.6226 13.2896,30.9559 13,32.5C 12.6667,31.8333 12.3333,31.1667 12,30.5C 10.8904,32.0368 9.39037,32.7035 7.5,32.5C 7.5,27.5 7.5,22.5 7.5,17.5C 9.72241,17.822 11.5557,17.1554 13,15.5C 14.9923,16.3281 16.4923,17.6614 17.5,19.5 Z"/></g>
<g><path style="opacity:1" fill="#7299a9" d="M 32.5,28.5 C 33.8333,28.5 35.1667,28.5 36.5,28.5C 37.1667,28.5 37.8333,28.5 38.5,28.5C 39.1667,28.5 39.8333,28.5 40.5,28.5C 43.1667,28.5 45.8333,28.5 48.5,28.5C 49.1667,28.5 49.8333,28.5 50.5,28.5C 52.5,28.5 54.5,28.5 56.5,28.5C 56.5,33.5 56.5,38.5 56.5,43.5C 54.4862,43.6085 52.8195,42.9418 51.5,41.5C 51.7678,39.901 51.4345,38.5676 50.5,37.5C 51.9759,35.3374 51.6426,34.6707 49.5,35.5C 48.4314,38.5394 47.2647,41.5394 46,44.5C 44.7245,40.9579 43.2245,37.6245 41.5,34.5C 38.6946,33.6805 35.6946,33.1805 32.5,33C 34.0441,32.7104 35.3774,32.0437 36.5,31C 34.563,30.8784 33.2297,30.045 32.5,28.5 Z"/></g>
<g><path style="opacity:1" fill="#89a8ba" d="M 29.5,26.5 C 30.5,27.1667 31.5,27.8333 32.5,28.5C 33.2297,30.045 34.563,30.8784 36.5,31C 35.3774,32.0437 34.0441,32.7104 32.5,33C 35.6946,33.1805 38.6946,33.6805 41.5,34.5C 40.209,34.2627 39.209,34.596 38.5,35.5C 37.5,35.5 36.5,35.5 35.5,35.5C 34.0011,34.506 32.3344,34.506 30.5,35.5C 26.3871,33.5683 23.7204,34.9016 22.5,39.5C 21.5,39.5 20.5,39.5 19.5,39.5C 19.81,42.7131 19.4767,45.7131 18.5,48.5C 18.5,43.8333 18.5,39.1667 18.5,34.5C 16.8008,34.3398 15.1341,34.5065 13.5,35C 14.056,35.3826 14.3893,35.8826 14.5,36.5C 14.5,37.8333 14.5,39.1667 14.5,40.5C 12.1667,40.5 9.83333,40.5 7.5,40.5C 7.5,39.5 7.5,38.5 7.5,37.5C 7.5,35.8333 7.5,34.1667 7.5,32.5C 9.39037,32.7035 10.8904,32.0368 12,30.5C 12.3333,31.1667 12.6667,31.8333 13,32.5C 13.2896,30.9559 13.9563,29.6226 15,28.5C 16.8065,32.3509 18.6398,32.3509 20.5,28.5C 21.4511,29.9187 21.7845,31.5853 21.5,33.5C 24.8122,32.5153 28.1455,31.5153 31.5,30.5C 30.3698,29.3777 29.7031,28.0443 29.5,26.5 Z"/></g>
<g><path style="opacity:1" fill="#f0f3f5" d="M 18.5,48.5 C 17.5,48.5 16.5,48.5 15.5,48.5C 15.8168,44.2984 15.4834,40.2984 14.5,36.5C 14.3893,35.8826 14.056,35.3826 13.5,35C 15.1341,34.5065 16.8008,34.3398 18.5,34.5C 18.5,39.1667 18.5,43.8333 18.5,48.5 Z"/></g>
<g><path style="opacity:1" fill="#e0e7eb" d="M 30.5,35.5 C 32.3344,34.506 34.0011,34.506 35.5,35.5C 36.0226,41.7181 35.3559,47.7181 33.5,53.5C 30.592,54.5691 27.592,54.7358 24.5,54C 22.1282,52.5295 22.1282,51.3628 24.5,50.5C 26.2038,52.8493 28.5371,53.8493 31.5,53.5C 31.6621,51.4727 31.4955,49.4727 31,47.5C 24.6789,49.023 21.8456,46.3563 22.5,39.5C 23.7204,34.9016 26.3871,33.5683 30.5,35.5 Z"/></g>
<g><path style="opacity:1" fill="#eef2f4" d="M 38.5,35.5 C 39.209,34.596 40.209,34.2627 41.5,34.5C 43.2245,37.6245 44.7245,40.9579 46,44.5C 47.2647,41.5394 48.4314,38.5394 49.5,35.5C 51.6426,34.6707 51.9759,35.3374 50.5,37.5C 49.4124,41.4292 47.7458,45.0959 45.5,48.5C 42.8998,44.299 40.5665,39.9656 38.5,35.5 Z"/></g>
<g><path style="opacity:1" fill="#567d92" d="M 30.5,35.5 C 31.58,38.7431 31.7466,42.0764 31,45.5C 29.6667,46.8333 28.3333,46.8333 27,45.5C 26.3333,42.5 26.3333,39.5 27,36.5C 28.0113,35.6634 29.1779,35.33 30.5,35.5 Z"/></g>
<g><path style="opacity:1" fill="#518395" d="M 35.5,35.5 C 36.5,35.5 37.5,35.5 38.5,35.5C 40.5665,39.9656 42.8998,44.299 45.5,48.5C 47.7458,45.0959 49.4124,41.4292 50.5,37.5C 51.4345,38.5676 51.7678,39.901 51.5,41.5C 51.3493,46.4833 49.1826,50.1499 45,52.5C 43.7387,52.2409 42.7387,51.5742 42,50.5C 38.1952,38.2113 36.6952,38.5446 37.5,51.5C 36.3951,52.6005 35.0618,53.2671 33.5,53.5C 35.3559,47.7181 36.0226,41.7181 35.5,35.5 Z"/></g>
<g><path style="opacity:1" fill="#4c8b9b" d="M 56.5,28.5 C 56.8333,28.5 57.1667,28.5 57.5,28.5C 57.8269,38.015 57.4936,47.3483 56.5,56.5C 49.825,56.6663 43.1583,56.4996 36.5,56C 37.3802,54.6439 37.7135,53.1439 37.5,51.5C 36.6952,38.5446 38.1952,38.2113 42,50.5C 42.7387,51.5742 43.7387,52.2409 45,52.5C 49.1826,50.1499 51.3493,46.4833 51.5,41.5C 52.8195,42.9418 54.4862,43.6085 56.5,43.5C 56.5,38.5 56.5,33.5 56.5,28.5 Z"/></g>
<g><path style="opacity:1" fill="#447a8c" d="M 14.5,36.5 C 15.4834,40.2984 15.8168,44.2984 15.5,48.5C 16.5,48.5 17.5,48.5 18.5,48.5C 19.4767,45.7131 19.81,42.7131 19.5,39.5C 20.5,39.5 21.5,39.5 22.5,39.5C 21.8456,46.3563 24.6789,49.023 31,47.5C 31.4955,49.4727 31.6621,51.4727 31.5,53.5C 28.5371,53.8493 26.2038,52.8493 24.5,50.5C 22.1282,51.3628 22.1282,52.5295 24.5,54C 27.592,54.7358 30.592,54.5691 33.5,53.5C 35.0618,53.2671 36.3951,52.6005 37.5,51.5C 37.7135,53.1439 37.3802,54.6439 36.5,56C 43.1583,56.4996 49.825,56.6663 56.5,56.5C 45.3456,57.4948 34.0123,57.8281 22.5,57.5C 22.0481,54.797 21.3815,52.1303 20.5,49.5C 18.6293,50.767 16.7959,50.767 15,49.5C 14.502,46.5184 14.3354,43.5184 14.5,40.5C 14.5,39.1667 14.5,37.8333 14.5,36.5 Z"/></g>
<g><path style="opacity:0.959" fill="#356c7b" d="M 57.5,12.5 C 57.8333,12.5 58.1667,12.5 58.5,12.5C 59.0222,17.163 59.3556,21.8297 59.5,26.5C 58.7659,36.8182 58.2659,47.1515 58,57.5C 50.253,58.4817 42.4197,58.815 34.5,58.5C 30.5,58.5 26.5,58.5 22.5,58.5C 16.9066,58.8066 11.4066,58.4732 6,57.5C 5.50042,50.8417 5.33375,44.175 5.5,37.5C 6.16667,37.5 6.83333,37.5 7.5,37.5C 7.5,38.5 7.5,39.5 7.5,40.5C 7.33398,45.8437 7.50065,51.1771 8,56.5C 12.7367,57.4692 17.57,57.8025 22.5,57.5C 34.0123,57.8281 45.3456,57.4948 56.5,56.5C 57.4936,47.3483 57.8269,38.015 57.5,28.5C 57.5,26.5 57.5,24.5 57.5,22.5C 57.5,21.5 57.5,20.5 57.5,19.5C 57.5,17.1667 57.5,14.8333 57.5,12.5 Z"/></g>
<g><path style="opacity:1" fill="#4b8b9b" d="M 7.5,40.5 C 9.83333,40.5 12.1667,40.5 14.5,40.5C 14.3354,43.5184 14.502,46.5184 15,49.5C 16.7959,50.767 18.6293,50.767 20.5,49.5C 21.3815,52.1303 22.0481,54.797 22.5,57.5C 17.57,57.8025 12.7367,57.4692 8,56.5C 7.50065,51.1771 7.33398,45.8437 7.5,40.5 Z"/></g>
<g><path style="opacity:0.011" fill="#284b7b" d="M 22.5,58.5 C 26.5,58.5 30.5,58.5 34.5,58.5C 30.5,61.1667 26.5,61.1667 22.5,58.5 Z"/></g>
</svg>
